<svg width="32" height="32" viewBox="0 0 32 32" fill="none" xmlns="http://www.w3.org/2000/svg">
<rect width="32" height="32" rx="4" fill="#D8DDFA"/>
<path fill-rule="evenodd" clip-rule="evenodd" d="M24.9133 20.3147L24.1444 14.1201C23.676 11.9096 22.3503 11 21.0865 11H10.9317C9.65022 11 8.28034 11.846 7.88264 14.1201L7.1049 20.3147C6.46858 24.8629 8.81062 26 11.8685 26H20.1585C23.2075 26 25.4789 24.3535 24.9133 20.3147ZM13.0972 16.1484C12.6091 16.1484 12.2134 15.7411 12.2134 15.2387C12.2134 14.7364 12.6091 14.3291 13.0972 14.3291C13.5853 14.3291 13.981 14.7364 13.981 15.2387C13.981 15.7411 13.5853 16.1484 13.0972 16.1484ZM18.0024 15.2387C18.0024 15.7411 18.3981 16.1484 18.8862 16.1484C19.3743 16.1484 19.77 15.7411 19.77 15.2387C19.77 14.7364 19.3743 14.3291 18.8862 14.3291C18.3981 14.3291 18.0024 14.7364 18.0024 15.2387Z" fill="#0048B3"/>
<path opacity="0.4" d="M20.9739 10.7743C20.977 10.8519 20.9621 10.9291 20.9303 11H19.4932C19.4654 10.9279 19.4506 10.8515 19.4497 10.7743C19.4497 8.85682 17.8899 7.30238 15.9657 7.30238C14.0416 7.30238 12.4818 8.85682 12.4818 10.7743C12.495 10.849 12.495 10.9253 12.4818 11H11.0099C10.9967 10.9253 10.9967 10.849 11.0099 10.7743C11.1217 8.10591 13.325 6 16.0049 6C18.6849 6 20.8882 8.10591 21 10.7743H20.9739Z" fill="#0048B3"/>
</svg>
