<svg width="141" height="45" viewBox="0 0 141 45" fill="none" xmlns="http://www.w3.org/2000/svg">
<rect x="1" y="1" width="43" height="43" rx="21.5" fill="white"/>
<path d="M18.625 19.4205H20.3182C20.267 17.5568 18.6193 16.2045 16.2557 16.2045C13.9205 16.2045 12.1307 17.5398 12.1307 19.5455C12.1307 21.1648 13.2898 22.1136 15.1591 22.6193L16.5341 22.9943C17.7784 23.3239 18.7386 23.733 18.7386 24.767C18.7386 25.9034 17.6534 26.6534 16.1591 26.6534C14.8068 26.6534 13.6818 26.0511 13.5795 24.7841H11.8182C11.9318 26.892 13.5625 28.1932 16.1705 28.1932C18.9034 28.1932 20.4773 26.7557 20.4773 24.7841C20.4773 22.6875 18.608 21.875 17.1307 21.5114L15.9943 21.2159C15.0852 20.983 13.875 20.5568 13.8807 19.4432C13.8807 18.4545 14.7841 17.7216 16.2159 17.7216C17.5511 17.7216 18.5 18.3466 18.625 19.4205ZM22.5753 28H24.331V23.9091H26.7173C29.4162 23.9091 30.7514 22.2784 30.7514 20.1307C30.7514 17.9886 29.4276 16.3636 26.723 16.3636H22.5753V28ZM24.331 22.4205V17.8693H26.5355C28.2741 17.8693 28.9844 18.8125 28.9844 20.1307C28.9844 21.4489 28.2741 22.4205 26.5582 22.4205H24.331Z" fill="#3A57E8"/>
<rect x="1" y="1" width="43" height="43" rx="21.5" stroke="#3A57E8" stroke-width="2"/>
<rect x="33" y="1" width="43" height="43" rx="21.5" fill="white"/>
<path d="M45.2784 28H47.0341V23.9091H49.4205C52.1193 23.9091 53.4545 22.2784 53.4545 20.1307C53.4545 17.9886 52.1307 16.3636 49.4261 16.3636H45.2784V28ZM47.0341 22.4205V17.8693H49.2386C50.9773 17.8693 51.6875 18.8125 51.6875 20.1307C51.6875 21.4489 50.9773 22.4205 49.2614 22.4205H47.0341ZM55.5128 28H57.2685V23.9091H59.6548C62.3537 23.9091 63.6889 22.2784 63.6889 20.1307C63.6889 17.9886 62.3651 16.3636 59.6605 16.3636H55.5128V28ZM57.2685 22.4205V17.8693H59.473C61.2116 17.8693 61.9219 18.8125 61.9219 20.1307C61.9219 21.4489 61.2116 22.4205 59.4957 22.4205H57.2685Z" fill="#3A57E8"/>
<rect x="33" y="1" width="43" height="43" rx="21.5" stroke="#3A57E8" stroke-width="2"/>
<rect x="65" y="1" width="43" height="43" rx="21.5" fill="white"/>
<path d="M73.2784 16.3636V28H74.9489V19.5739H75.0568L78.4886 27.983H79.875L83.3068 19.5795H83.4148V28H85.0852V16.3636H82.9545L79.25 25.4091H79.1136L75.4091 16.3636H73.2784ZM87.6378 16.3636V28H89.3082V19.5739H89.4162L92.848 27.983H94.2344L97.6662 19.5795H97.7741V28H99.4446V16.3636H97.3139L93.6094 25.4091H93.473L89.7685 16.3636H87.6378Z" fill="#3A57E8"/>
<rect x="65" y="1" width="43" height="43" rx="21.5" stroke="#3A57E8" stroke-width="2"/>
<rect x="97" y="1" width="43" height="43" rx="21.5" fill="white"/>
<path d="M108.705 17.875H112.33V28H114.08V17.875H117.71V16.3636H108.705V17.875ZM119.7 28H121.456V23.9091H123.842C126.541 23.9091 127.876 22.2784 127.876 20.1307C127.876 17.9886 126.553 16.3636 123.848 16.3636H119.7V28ZM121.456 22.4205V17.8693H123.661C125.399 17.8693 126.109 18.8125 126.109 20.1307C126.109 21.4489 125.399 22.4205 123.683 22.4205H121.456Z" fill="#3A57E8"/>
<rect x="97" y="1" width="43" height="43" rx="21.5" stroke="#3A57E8" stroke-width="2"/>
</svg>
