<svg width="479" height="378" viewBox="0 0 479 378" fill="none" xmlns="http://www.w3.org/2000/svg">
<g id="Graphic Side" clip-path="url(#clip0_1820_2386)">
<circle id="Ellipse 126" cx="51.5" cy="142.5" r="192.5" fill="url(#paint0_radial_1820_2386)"/>
<circle id="Ellipse 127" cx="423.5" cy="255.5" r="186.5" fill="url(#paint1_radial_1820_2386)"/>
<g id="Group 383">
<g id="Card" filter="url(#filter0_b_1820_2386)">
<rect x="21" y="40" width="437.02" height="298" rx="24" fill="white" fill-opacity="0.25"/>
<g id="Frame 404">
<g id="Frame 406">
<g id="Frame 400">
<path id="VISA" d="M50.4489 71.6364H45.6662L52.696 92H58.2443L65.2642 71.6364H60.4915L55.5597 87.108H55.3707L50.4489 71.6364ZM72.0206 71.6364H67.7152V92H72.0206V71.6364ZM86.6097 77.4929H90.7362C90.6765 73.8636 87.6935 71.358 83.1594 71.358C78.695 71.358 75.4237 73.8239 75.4435 77.5227C75.4336 80.5256 77.5515 82.2457 80.9918 83.071L83.2092 83.6278C85.4265 84.1648 86.6594 84.8011 86.6694 86.1733C86.6594 87.6648 85.2475 88.679 83.06 88.679C80.8228 88.679 79.212 87.6449 79.0728 85.6065H74.9066C75.016 90.0114 78.168 92.2884 83.1097 92.2884C88.0813 92.2884 91.0046 89.9119 91.0146 86.1832C91.0046 82.7926 88.4492 80.9929 84.9094 80.1974L83.0799 79.7599C81.31 79.3523 79.8285 78.696 79.8583 77.2344C79.8583 75.9219 81.0217 74.9574 83.1296 74.9574C85.1879 74.9574 86.4506 75.892 86.6097 77.4929ZM96.9556 92L98.467 87.3565H105.815L107.326 92H111.94L104.92 71.6364H99.3718L92.342 92H96.9556ZM99.5607 83.9957L102.066 76.2898H102.225L104.731 83.9957H99.5607Z" fill="white"/>
<path id="PREMIUM ACCOUNT" d="M46.1449 113H47.2898V109.547H49.358C51.56 109.547 52.5526 108.208 52.5526 106.537C52.5526 104.866 51.56 103.545 49.3395 103.545H46.1449V113ZM47.2898 108.531V104.561H49.3026C50.8398 104.561 51.4261 105.401 51.4261 106.537C51.4261 107.673 50.8398 108.531 49.321 108.531H47.2898ZM54.3968 113H55.5417V109.307H57.6099C57.693 109.307 57.7715 109.307 57.85 109.302L59.8443 113H61.1738L59.0364 109.094C60.2413 108.684 60.8045 107.7 60.8045 106.445C60.8045 104.773 59.8074 103.545 57.5914 103.545H54.3968V113ZM55.5417 108.273V104.561H57.5545C59.0872 104.561 59.6781 105.309 59.6781 106.445C59.6781 107.58 59.0872 108.273 57.573 108.273H55.5417ZM62.7123 113H68.4921V111.984H63.8572V108.771H68.1228V107.756H63.8572V104.561H68.4182V103.545H62.7123V113ZM70.4818 103.545V113H71.5528V105.817H71.6452L74.5997 113H75.6338L78.5883 105.817H78.6807V113H79.7517V103.545H78.3852L75.1721 111.393H75.0613L71.8483 103.545H70.4818ZM83.1921 103.545H82.0472V113H83.1921V103.545ZM91.6922 103.545V109.713C91.6922 111.098 90.7412 112.095 89.1624 112.095C87.5835 112.095 86.6325 111.098 86.6325 109.713V103.545H85.4877V109.805C85.4877 111.744 86.9372 113.166 89.1624 113.166C91.3875 113.166 92.8371 111.744 92.8371 109.805V103.545H91.6922ZM95.1234 103.545V113H96.1944V105.817H96.2868L99.2413 113H100.275L103.23 105.817H103.322V113H104.393V103.545H103.027L99.8137 111.393H99.7029L96.4899 103.545H95.1234ZM110.733 113L111.684 110.322H115.506L116.457 113H117.658L114.186 103.545H113.004L109.533 113H110.733ZM112.044 109.307L113.558 105.041H113.632L115.146 109.307H112.044ZM126.294 106.5C125.943 104.561 124.392 103.416 122.49 103.416C120.071 103.416 118.317 105.281 118.317 108.273C118.317 111.264 120.071 113.129 122.49 113.129C124.392 113.129 125.943 111.984 126.294 110.045H125.149C124.872 111.357 123.746 112.058 122.49 112.058C120.773 112.058 119.425 110.729 119.425 108.273C119.425 105.817 120.773 104.487 122.49 104.487C123.746 104.487 124.872 105.189 125.149 106.5H126.294ZM135.752 106.5C135.401 104.561 133.85 103.416 131.948 103.416C129.529 103.416 127.775 105.281 127.775 108.273C127.775 111.264 129.529 113.129 131.948 113.129C133.85 113.129 135.401 111.984 135.752 110.045H134.607C134.33 111.357 133.204 112.058 131.948 112.058C130.231 112.058 128.883 110.729 128.883 108.273C128.883 105.817 130.231 104.487 131.948 104.487C133.204 104.487 134.33 105.189 134.607 106.5H135.752ZM145.579 108.273C145.579 105.281 143.825 103.416 141.406 103.416C138.987 103.416 137.233 105.281 137.233 108.273C137.233 111.264 138.987 113.129 141.406 113.129C143.825 113.129 145.579 111.264 145.579 108.273ZM144.471 108.273C144.471 110.729 143.123 112.058 141.406 112.058C139.689 112.058 138.341 110.729 138.341 108.273C138.341 105.817 139.689 104.487 141.406 104.487C143.123 104.487 144.471 105.817 144.471 108.273ZM153.709 103.545V109.713C153.709 111.098 152.758 112.095 151.179 112.095C149.6 112.095 148.649 111.098 148.649 109.713V103.545H147.504V109.805C147.504 111.744 148.954 113.166 151.179 113.166C153.404 113.166 154.854 111.744 154.854 109.805V103.545H153.709ZM164.637 103.545H163.511V110.987H163.418L158.248 103.545H157.14V113H158.285V105.577H158.377L163.529 113H164.637V103.545ZM166.411 104.561H169.384V113H170.529V104.561H173.502V103.545H166.411V104.561Z" fill="white"/>
</g>
<g id="Group 253">
<circle id="Ellipse 53" opacity="0.25" cx="354.5" cy="99.5" r="35.5" fill="white"/>
<circle id="Ellipse 54" opacity="0.5" cx="398.52" cy="99.5" r="35.5" fill="white"/>
</g>
</g>
<g id="Frame 399">
<path id="5789" d="M52.1303 206.229C55.4954 206.229 57.8967 203.852 57.8885 200.593C57.8967 197.359 55.6424 195.006 52.5959 195.006C51.3544 195.006 50.2028 195.48 49.5494 196.117H49.4513L49.9822 191.437H57.0799V189.273H47.8832L46.9439 197.702L49.2553 198.045C49.8842 197.481 51.0114 197.097 52.0241 197.097C54.0089 197.114 55.4464 198.6 55.4464 200.642C55.4464 202.651 54.0497 204.105 52.1303 204.105C50.5131 204.105 49.2308 203.076 49.1001 201.638H46.6499C46.7479 204.301 49.0593 206.229 52.1303 206.229ZM61.4353 206H64.0734L71.3508 191.511V189.273H60.2918V191.437H68.7371V191.56L61.4353 206ZM79.5061 206.229C82.9855 206.229 85.444 204.252 85.4603 201.54C85.444 199.433 83.9656 197.661 82.0953 197.326V197.228C83.7206 196.836 84.8232 195.309 84.8396 193.504C84.8232 190.947 82.569 189.044 79.5061 189.044C76.4106 189.044 74.1563 190.947 74.1727 193.504C74.1563 195.3 75.259 196.836 76.917 197.228V197.326C75.0139 197.661 73.5356 199.433 73.5519 201.54C73.5356 204.252 75.9941 206.229 79.5061 206.229ZM79.5061 204.162C77.4152 204.162 76.0921 203.051 76.1084 201.377C76.0921 199.637 77.5296 198.396 79.5061 198.396C81.45 198.396 82.8875 199.637 82.9039 201.377C82.8875 203.051 81.5725 204.162 79.5061 204.162ZM79.5061 196.379C77.8154 196.379 76.6148 195.309 76.6311 193.716C76.6148 192.148 77.7746 191.11 79.5061 191.11C81.205 191.11 82.3648 192.148 82.3811 193.716C82.3648 195.309 81.1723 196.379 79.5061 196.379ZM93.9485 189.044C90.4364 189.011 88.1413 191.535 88.1413 194.704C88.1495 197.898 90.4609 200.201 93.3604 200.201C95.1328 200.201 96.652 199.335 97.5096 197.93H97.6403C97.6321 201.777 96.1864 204.023 93.7362 204.023C92.1353 204.023 91.1062 203.043 90.7795 201.614H88.2884C88.6559 204.317 90.7468 206.229 93.7362 206.229C97.6239 206.229 100.058 202.888 100.058 197.032C100.05 190.923 96.9297 189.069 93.9485 189.044ZM93.9567 191.168C95.8924 191.168 97.3217 192.809 97.3217 194.647C97.3299 196.509 95.8189 198.143 93.9077 198.143C91.9883 198.143 90.5998 196.607 90.5916 194.672C90.5916 192.728 92.0373 191.168 93.9567 191.168Z" fill="white"/>
<path id="* * * *" d="M135.113 198.682H136.885L136.73 195.235L139.638 197.105L140.528 195.554L137.441 193.977L140.528 192.401L139.638 190.849L136.73 192.719L136.885 189.273H135.113L135.268 192.719L132.36 190.849L131.47 192.401L134.558 193.977L131.47 195.554L132.36 197.105L135.268 195.235L135.113 198.682ZM153.194 198.682H154.966L154.811 195.235L157.719 197.105L158.609 195.554L155.522 193.977L158.609 192.401L157.719 190.849L154.811 192.719L154.966 189.273H153.194L153.349 192.719L150.441 190.849L149.551 192.401L152.639 193.977L149.551 195.554L150.441 197.105L153.349 195.235L153.194 198.682ZM171.275 198.682H173.047L172.892 195.235L175.8 197.105L176.69 195.554L173.603 193.977L176.69 192.401L175.8 190.849L172.892 192.719L173.047 189.273H171.275L171.43 192.719L168.523 190.849L167.632 192.401L170.72 193.977L167.632 195.554L168.523 197.105L171.43 195.235L171.275 198.682ZM189.356 198.682H191.128L190.973 195.235L193.881 197.105L194.771 195.554L191.684 193.977L194.771 192.401L193.881 190.849L190.973 192.719L191.128 189.273H189.356L189.511 192.719L186.604 190.849L185.713 192.401L188.801 193.977L185.713 195.554L186.604 197.105L189.511 195.235L189.356 198.682Z" fill="white"/>
<path id="* * * *_2" d="M230.113 198.682H231.885L231.73 195.235L234.638 197.105L235.528 195.554L232.441 193.977L235.528 192.401L234.638 190.849L231.73 192.719L231.885 189.273H230.113L230.268 192.719L227.36 190.849L226.47 192.401L229.558 193.977L226.47 195.554L227.36 197.105L230.268 195.235L230.113 198.682ZM248.194 198.682H249.966L249.811 195.235L252.719 197.105L253.609 195.554L250.522 193.977L253.609 192.401L252.719 190.849L249.811 192.719L249.966 189.273H248.194L248.349 192.719L245.441 190.849L244.551 192.401L247.639 193.977L244.551 195.554L245.441 197.105L248.349 195.235L248.194 198.682ZM266.275 198.682H268.047L267.892 195.235L270.8 197.105L271.69 195.554L268.603 193.977L271.69 192.401L270.8 190.849L267.892 192.719L268.047 189.273H266.275L266.43 192.719L263.523 190.849L262.632 192.401L265.72 193.977L262.632 195.554L263.523 197.105L266.43 195.235L266.275 198.682ZM284.356 198.682H286.128L285.973 195.235L288.881 197.105L289.771 195.554L286.684 193.977L289.771 192.401L288.881 190.849L285.973 192.719L286.128 189.273H284.356L284.511 192.719L281.604 190.849L280.713 192.401L283.801 193.977L280.713 195.554L281.604 197.105L284.511 195.235L284.356 198.682Z" fill="white"/>
<path id="2847" d="M321.609 206H332.619V203.836H325.088V203.713L328.413 200.234C331.475 197.138 332.349 195.66 332.349 193.789C332.349 191.102 330.161 189.044 327.008 189.044C323.88 189.044 321.593 191.07 321.593 194.124H324.002C323.994 192.327 325.154 191.151 326.959 191.151C328.658 191.151 329.948 192.197 329.948 193.863C329.948 195.341 329.066 196.403 327.269 198.306L321.609 204.17V206ZM341.366 206.229C344.846 206.229 347.304 204.252 347.321 201.54C347.304 199.433 345.826 197.661 343.956 197.326V197.228C345.581 196.836 346.684 195.309 346.7 193.504C346.684 190.947 344.429 189.044 341.366 189.044C338.271 189.044 336.017 190.947 336.033 193.504C336.017 195.3 337.119 196.836 338.777 197.228V197.326C336.874 197.661 335.396 199.433 335.412 201.54C335.396 204.252 337.854 206.229 341.366 206.229ZM341.366 204.162C339.276 204.162 337.952 203.051 337.969 201.377C337.952 199.637 339.39 198.396 341.366 198.396C343.31 198.396 344.748 199.637 344.764 201.377C344.748 203.051 343.433 204.162 341.366 204.162ZM341.366 196.379C339.676 196.379 338.475 195.309 338.491 193.716C338.475 192.148 339.635 191.11 341.366 191.11C343.065 191.11 344.225 192.148 344.241 193.716C344.225 195.309 343.033 196.379 341.366 196.379ZM349.896 202.733H357.826V206H360.236V202.733H362.449V200.593H360.236V189.273H357.124L349.896 200.691V202.733ZM357.843 200.593H352.542V200.462L357.712 192.278H357.843V200.593ZM365.859 206H368.497L375.775 191.511V189.273H364.716V191.437H373.161V191.56L365.859 206Z" fill="white"/>
</g>
<g id="Frame 403">
<g id="Frame 401">
<path id="Card holder" d="M52.4063 266.5C52.1094 264.859 50.7969 263.891 49.1875 263.891C47.1406 263.891 45.6563 265.469 45.6563 268C45.6563 270.531 47.1406 272.109 49.1875 272.109C50.7969 272.109 52.1094 271.141 52.4063 269.5H51.4375C51.2031 270.609 50.25 271.203 49.1875 271.203C47.7344 271.203 46.5938 270.078 46.5938 268C46.5938 265.922 47.7344 264.797 49.1875 264.797C50.25 264.797 51.2031 265.391 51.4375 266.5H52.4063ZM55.6123 272.141C56.6592 272.141 57.2061 271.578 57.3936 271.187H57.4404V272H58.3623V268.047C58.3623 266.141 56.9092 265.922 56.1436 265.922C55.2373 265.922 54.2061 266.234 53.7373 267.328L54.6123 267.641C54.8154 267.203 55.2959 266.734 56.1748 266.734C57.0225 266.734 57.4404 267.184 57.4404 267.953V267.984C57.4404 268.43 56.9873 268.391 55.8936 268.531C54.7803 268.676 53.5654 268.922 53.5654 270.297C53.5654 271.469 54.4717 272.141 55.6123 272.141ZM55.7529 271.312C55.0186 271.312 54.4873 270.984 54.4873 270.344C54.4873 269.641 55.1279 269.422 55.8467 269.328C56.2373 269.281 57.2842 269.172 57.4404 268.984V269.828C57.4404 270.578 56.8467 271.312 55.7529 271.312ZM60.0449 272H60.9668V268.203C60.9668 267.391 61.6074 266.797 62.4824 266.797C62.7285 266.797 62.9824 266.844 63.0449 266.859V265.922C62.9395 265.914 62.6973 265.906 62.5605 265.906C61.8418 265.906 61.2168 266.312 60.998 266.906H60.9355V266H60.0449V272ZM66.2207 272.125C67.377 272.125 67.7676 271.406 67.9707 271.078H68.0801V272H68.9707V264H68.0488V266.953H67.9707C67.7676 266.641 67.4082 265.922 66.2363 265.922C64.7207 265.922 63.6738 267.125 63.6738 269.016C63.6738 270.922 64.7207 272.125 66.2207 272.125ZM66.3457 271.297C65.1895 271.297 64.5957 270.281 64.5957 269C64.5957 267.734 65.1738 266.75 66.3457 266.75C67.4707 266.75 68.0645 267.656 68.0645 269C68.0645 270.359 67.4551 271.297 66.3457 271.297ZM74.8027 268.391C74.8027 267.344 75.4707 266.75 76.3809 266.75C77.248 266.75 77.7715 267.297 77.7715 268.25V272H78.6934V268.188C78.6934 266.645 77.873 265.922 76.6465 265.922C75.7012 265.922 75.1621 266.316 74.8809 266.937H74.8027V264H73.8809V272H74.8027V268.391ZM82.8174 272.125C84.4424 272.125 85.5361 270.891 85.5361 269.031C85.5361 267.156 84.4424 265.922 82.8174 265.922C81.1924 265.922 80.0986 267.156 80.0986 269.031C80.0986 270.891 81.1924 272.125 82.8174 272.125ZM82.8174 271.297C81.583 271.297 81.0205 270.234 81.0205 269.031C81.0205 267.828 81.583 266.75 82.8174 266.75C84.0518 266.75 84.6143 267.828 84.6143 269.031C84.6143 270.234 84.0518 271.297 82.8174 271.297ZM87.8652 264H86.9434V272H87.8652V264ZM91.8193 272.125C92.9756 272.125 93.3662 271.406 93.5693 271.078H93.6787V272H94.5693V264H93.6475V266.953H93.5693C93.3662 266.641 93.0068 265.922 91.835 265.922C90.3193 265.922 89.2725 267.125 89.2725 269.016C89.2725 270.922 90.3193 272.125 91.8193 272.125ZM91.9443 271.297C90.7881 271.297 90.1943 270.281 90.1943 269C90.1943 267.734 90.7725 266.75 91.9443 266.75C93.0693 266.75 93.6631 267.656 93.6631 269C93.6631 270.359 93.0537 271.297 91.9443 271.297ZM98.9014 272.125C100.12 272.125 101.011 271.516 101.292 270.609L100.401 270.359C100.167 270.984 99.624 271.297 98.9014 271.297C97.8193 271.297 97.0732 270.598 97.0303 269.312H101.386V268.922C101.386 266.687 100.058 265.922 98.8076 265.922C97.1826 265.922 96.1045 267.203 96.1045 269.047C96.1045 270.891 97.167 272.125 98.9014 272.125ZM97.0303 268.516C97.0928 267.582 97.7529 266.75 98.8076 266.75C99.8076 266.75 100.448 267.5 100.448 268.516H97.0303ZM102.788 272H103.71V268.203C103.71 267.391 104.351 266.797 105.226 266.797C105.472 266.797 105.726 266.844 105.788 266.859V265.922C105.683 265.914 105.44 265.906 105.304 265.906C104.585 265.906 103.96 266.312 103.741 266.906H103.679V266H102.788V272Z" fill="white"/>
<path id="Mike Smith" d="M46.5181 290.182V304H48.5018V293.994H48.63L52.7053 303.98H54.3516L58.4268 294.001H58.555V304H60.5387V290.182H58.0085L53.6094 300.923H53.4474L49.0483 290.182H46.5181ZM63.4079 304H65.4253V293.636H63.4079V304ZM64.4268 292.037C65.1217 292.037 65.702 291.498 65.702 290.836C65.702 290.175 65.1217 289.629 64.4268 289.629C63.7251 289.629 63.1515 290.175 63.1515 290.836C63.1515 291.498 63.7251 292.037 64.4268 292.037ZM68.1394 304H70.1568V300.323L71.1621 299.317L74.6841 304H77.1603L72.6802 298.083L76.877 293.636H74.4615L70.3322 298.022H70.1568V290.182H68.1394V304ZM82.7554 304.209C85.0157 304.209 86.6148 303.096 87.0736 301.409L85.1642 301.065C84.7998 302.043 83.9227 302.543 82.7757 302.543C81.0484 302.543 79.8879 301.423 79.8339 299.425H87.2018V298.71C87.2018 294.966 84.9617 293.501 82.6137 293.501C79.7259 293.501 77.8232 295.701 77.8232 298.886C77.8232 302.104 79.699 304.209 82.7554 304.209ZM79.8406 297.914C79.9216 296.443 80.9877 295.168 82.6272 295.168C84.1926 295.168 85.2181 296.328 85.2249 297.914H79.8406ZM102.167 293.812H104.178C104.117 291.599 102.16 289.993 99.3534 289.993C96.5803 289.993 94.455 291.578 94.455 293.96C94.455 295.883 95.8314 297.01 98.0512 297.61L99.684 298.056C101.162 298.447 102.302 298.933 102.302 300.161C102.302 301.51 101.013 302.401 99.2387 302.401C97.6329 302.401 96.297 301.686 96.1755 300.181H94.0839C94.2188 302.684 96.1553 304.229 99.2522 304.229C102.498 304.229 104.367 302.522 104.367 300.181C104.367 297.691 102.147 296.727 100.392 296.295L99.0431 295.944C97.9635 295.667 96.5264 295.161 96.5331 293.839C96.5331 292.665 97.6059 291.794 99.3062 291.794C100.892 291.794 102.019 292.537 102.167 293.812ZM106.696 304H108.713V297.61C108.713 296.214 109.692 295.242 110.839 295.242C111.959 295.242 112.735 295.984 112.735 297.111V304H114.745V297.395C114.745 296.146 115.508 295.242 116.824 295.242C117.89 295.242 118.767 295.836 118.767 297.239V304H120.784V297.05C120.784 294.682 119.462 293.501 117.586 293.501C116.095 293.501 114.975 294.217 114.475 295.323H114.368C113.915 294.19 112.964 293.501 111.581 293.501C110.211 293.501 109.192 294.183 108.761 295.323H108.632V293.636H106.696V304ZM123.488 304H125.505V293.636H123.488V304ZM124.507 292.037C125.202 292.037 125.782 291.498 125.782 290.836C125.782 290.175 125.202 289.629 124.507 289.629C123.805 289.629 123.232 290.175 123.232 290.836C123.232 291.498 123.805 292.037 124.507 292.037ZM133.057 293.636H130.932V291.153H128.914V293.636H127.396V295.256H128.914V301.375C128.908 303.258 130.345 304.169 131.937 304.135C132.578 304.128 133.01 304.007 133.246 303.919L132.882 302.252C132.747 302.279 132.497 302.34 132.173 302.34C131.519 302.34 130.932 302.124 130.932 300.957V295.256H133.057V293.636ZM137.529 297.847C137.529 296.194 138.575 295.249 140.012 295.249C141.402 295.249 142.232 296.133 142.232 297.651V304H144.249V297.408C144.249 294.824 142.832 293.501 140.7 293.501C139.087 293.501 138.116 294.203 137.63 295.323H137.502V290.182H135.511V304H137.529V297.847Z" fill="white"/>
</g>
<g id="Frame 402">
<path id="Expire date" d="M375.969 272H380.859V271.141H376.938V268.422H380.547V267.562H376.938V264.859H380.797V264H375.969V272ZM383.105 266H382.043L383.949 269L382.043 272H383.105L384.543 269.672L385.98 272H387.043L385.105 269L387.043 266H385.98L384.543 268.453L383.105 266ZM388.358 274.25H389.28V271.078H389.358C389.562 271.406 389.952 272.125 391.108 272.125C392.608 272.125 393.655 270.922 393.655 269.016C393.655 267.125 392.608 265.922 391.093 265.922C389.921 265.922 389.562 266.641 389.358 266.953H389.249V266H388.358V274.25ZM389.265 269C389.265 267.656 389.858 266.75 390.983 266.75C392.155 266.75 392.733 267.734 392.733 269C392.733 270.281 392.14 271.297 390.983 271.297C389.874 271.297 389.265 270.359 389.265 269ZM395.062 272H395.983V266H395.062V272ZM395.53 265C395.89 265 396.187 264.719 396.187 264.375C396.187 264.031 395.89 263.75 395.53 263.75C395.171 263.75 394.874 264.031 394.874 264.375C394.874 264.719 395.171 265 395.53 265ZM397.672 272H398.594V268.203C398.594 267.391 399.234 266.797 400.109 266.797C400.355 266.797 400.609 266.844 400.672 266.859V265.922C400.566 265.914 400.324 265.906 400.188 265.906C399.469 265.906 398.844 266.312 398.625 266.906H398.562V266H397.672V272ZM404.098 272.125C405.316 272.125 406.207 271.516 406.488 270.609L405.598 270.359C405.363 270.984 404.82 271.297 404.098 271.297C403.016 271.297 402.27 270.598 402.227 269.312H406.582V268.922C406.582 266.687 405.254 265.922 404.004 265.922C402.379 265.922 401.301 267.203 401.301 269.047C401.301 270.891 402.363 272.125 404.098 272.125ZM402.227 268.516C402.289 267.582 402.949 266.75 404.004 266.75C405.004 266.75 405.645 267.5 405.645 268.516H402.227ZM413.344 272.125C414.5 272.125 414.891 271.406 415.094 271.078H415.203V272H416.094V264H415.172V266.953H415.094C414.891 266.641 414.531 265.922 413.359 265.922C411.844 265.922 410.797 267.125 410.797 269.016C410.797 270.922 411.844 272.125 413.344 272.125ZM413.469 271.297C412.312 271.297 411.719 270.281 411.719 269C411.719 267.734 412.297 266.75 413.469 266.75C414.594 266.75 415.188 267.656 415.188 269C415.188 270.359 414.578 271.297 413.469 271.297ZM419.676 272.141C420.723 272.141 421.27 271.578 421.457 271.187H421.504V272H422.426V268.047C422.426 266.141 420.973 265.922 420.207 265.922C419.301 265.922 418.27 266.234 417.801 267.328L418.676 267.641C418.879 267.203 419.359 266.734 420.238 266.734C421.086 266.734 421.504 267.184 421.504 267.953V267.984C421.504 268.43 421.051 268.391 419.957 268.531C418.844 268.676 417.629 268.922 417.629 270.297C417.629 271.469 418.535 272.141 419.676 272.141ZM419.816 271.312C419.082 271.312 418.551 270.984 418.551 270.344C418.551 269.641 419.191 269.422 419.91 269.328C420.301 269.281 421.348 269.172 421.504 268.984V269.828C421.504 270.578 420.91 271.312 419.816 271.312ZM426.718 266H425.437V264.562H424.515V266H423.608V266.781H424.515V270.531C424.515 271.578 425.358 272.078 426.14 272.078C426.483 272.078 426.702 272.016 426.827 271.969L426.64 271.141C426.562 271.156 426.437 271.187 426.233 271.187C425.827 271.187 425.437 271.062 425.437 270.281V266.781H426.718V266ZM430.556 272.125C431.774 272.125 432.665 271.516 432.946 270.609L432.056 270.359C431.821 270.984 431.278 271.297 430.556 271.297C429.474 271.297 428.728 270.598 428.685 269.312H433.04V268.922C433.04 266.687 431.712 265.922 430.462 265.922C428.837 265.922 427.759 267.203 427.759 269.047C427.759 270.891 428.821 272.125 430.556 272.125ZM428.685 268.516C428.747 267.582 429.407 266.75 430.462 266.75C431.462 266.75 432.103 267.5 432.103 268.516H428.685Z" fill="white"/>
<path id="06/21" d="M381.14 304.229C384.331 304.229 386.2 301.625 386.2 297.098C386.2 292.604 384.304 289.993 381.14 289.993C377.969 289.993 376.08 292.597 376.073 297.098C376.073 301.618 377.942 304.223 381.14 304.229ZM381.14 302.428C379.271 302.428 378.144 300.552 378.144 297.098C378.151 293.657 379.278 291.761 381.14 291.761C382.995 291.761 384.129 293.657 384.129 297.098C384.129 300.552 383.002 302.428 381.14 302.428ZM393.418 304.189C396.306 304.216 398.222 302.138 398.215 299.486C398.222 296.841 396.299 294.945 393.904 294.945C392.446 294.945 391.185 295.647 390.476 296.814H390.375C390.382 293.677 391.569 291.815 393.593 291.815C394.923 291.815 395.759 292.624 396.043 293.771H398.101C397.783 291.585 396.063 289.993 393.593 289.993C390.382 289.993 388.378 292.752 388.378 297.556C388.371 302.644 390.962 304.169 393.418 304.189ZM393.411 302.435C391.805 302.435 390.631 301.085 390.631 299.533C390.638 297.988 391.866 296.639 393.459 296.639C395.037 296.639 396.198 297.914 396.191 299.513C396.198 301.146 394.99 302.435 393.411 302.435ZM405.963 289.534H404.161L399.708 306.078H401.51L405.963 289.534ZM407.65 304H416.745V302.212H410.524V302.111L413.27 299.237C415.8 296.679 416.522 295.458 416.522 293.913C416.522 291.693 414.714 289.993 412.109 289.993C409.525 289.993 407.636 291.666 407.636 294.19H409.626C409.62 292.705 410.578 291.734 412.069 291.734C413.472 291.734 414.538 292.597 414.538 293.974C414.538 295.195 413.81 296.072 412.325 297.644L407.65 302.489V304ZM424.544 290.182H422.513L419.066 292.435V294.433L422.372 292.273H422.453V304H424.544V290.182Z" fill="white"/>
</g>
</g>
</g>
<rect x="22" y="41" width="435.02" height="296" rx="23" stroke="white" stroke-width="2"/>
</g>
</g>
</g>
<defs>
<filter id="filter0_b_1820_2386" x="-43" y="-24" width="565.02" height="426" filterUnits="userSpaceOnUse" color-interpolation-filters="sRGB">
<feFlood flood-opacity="0" result="BackgroundImageFix"/>
<feGaussianBlur in="BackgroundImageFix" stdDeviation="32"/>
<feComposite in2="SourceAlpha" operator="in" result="effect1_backgroundBlur_1820_2386"/>
<feBlend mode="normal" in="SourceGraphic" in2="effect1_backgroundBlur_1820_2386" result="shape"/>
</filter>
<radialGradient id="paint0_radial_1820_2386" cx="0" cy="0" r="1" gradientUnits="userSpaceOnUse" gradientTransform="translate(-141 -59.8718) rotate(47.0947) scale(407.992)">
<stop stop-color="#08328C"/>
<stop offset="1" stop-color="#1964D3"/>
</radialGradient>
<radialGradient id="paint1_radial_1820_2386" cx="0" cy="0" r="1" gradientUnits="userSpaceOnUse" gradientTransform="translate(619.386 470.975) rotate(-136.667) scale(466.234)">
<stop stop-color="#24777D"/>
<stop offset="1" stop-color="#9AE5EB"/>
</radialGradient>
<clipPath id="clip0_1820_2386">
<rect width="479" height="378" fill="white" transform="translate(479 378) rotate(-180)"/>
</clipPath>
</defs>
</svg>
