<svg width="614" height="369" viewBox="0 0 614 369" fill="none" xmlns="http://www.w3.org/2000/svg">
<g filter="url(#filter0_d_1820_2152)">
<rect x="13" y="3" width="588" height="343" rx="8" fill="white" shape-rendering="crispEdges"/>
<path d="M49.995 40.6754C49.5227 37.7202 47.2085 35.9929 44.2869 35.9929C40.7109 35.9929 38.0728 38.6715 38.0728 43.0909C38.0728 47.5103 40.6974 50.1889 44.2869 50.1889C47.3232 50.1889 49.543 48.2862 49.995 45.5536L47.8899 45.5469C47.5323 47.3146 46.0479 48.2862 44.3004 48.2862C41.9322 48.2862 40.1442 46.4712 40.1442 43.0909C40.1442 39.7376 41.9254 37.8956 44.3072 37.8956C46.0682 37.8956 47.5458 38.8874 47.8899 40.6754H49.995ZM56.6933 50.2092C59.6148 50.2092 61.5242 48.0703 61.5242 44.8654C61.5242 41.6403 59.6148 39.5014 56.6933 39.5014C53.7718 39.5014 51.8623 41.6403 51.8623 44.8654C51.8623 48.0703 53.7718 50.2092 56.6933 50.2092ZM56.7 48.5156C54.7906 48.5156 53.8999 46.8491 53.8999 44.8587C53.8999 42.875 54.7906 41.1882 56.7 41.1882C58.596 41.1882 59.4866 42.875 59.4866 44.8587C59.4866 46.8491 58.596 48.5156 56.7 48.5156ZM65.7935 43.8466C65.7935 42.1935 66.8056 41.2489 68.209 41.2489C69.5787 41.2489 70.4086 42.1463 70.4086 43.6509V50H72.426V43.408C72.426 40.8441 71.0158 39.5014 68.8972 39.5014C67.3386 39.5014 66.3198 40.2234 65.8407 41.3232H65.7125V39.6364H63.7761V50H65.7935V43.8466ZM83.6262 39.6364H81.4604L78.8425 47.6115H78.7346L76.1099 39.6364H73.9441L77.709 50H79.8681L83.6262 39.6364ZM89.6177 50.2092C91.878 50.2092 93.4771 49.0959 93.9359 47.4091L92.0265 47.065C91.6621 48.0433 90.785 48.5426 89.638 48.5426C87.9107 48.5426 86.7502 47.4226 86.6962 45.4254H94.0641V44.7102C94.0641 40.9656 91.824 39.5014 89.476 39.5014C86.5882 39.5014 84.6855 41.701 84.6855 44.8857C84.6855 48.104 86.5613 50.2092 89.6177 50.2092ZM86.7029 43.9141C86.7839 42.4432 87.85 41.168 89.4895 41.168C91.0549 41.168 92.0804 42.3285 92.0872 43.9141H86.7029ZM96.3025 50H98.3199V43.6712C98.3199 42.315 99.3657 41.3366 100.796 41.3366C101.214 41.3366 101.687 41.4109 101.849 41.4581V39.5284C101.646 39.5014 101.248 39.4812 100.992 39.4812C99.7773 39.4812 98.7382 40.1694 98.3604 41.2827H98.2524V39.6364H96.3025V50ZM111.36 42.1665C110.942 40.554 109.68 39.5014 107.44 39.5014C105.099 39.5014 103.439 40.7362 103.439 42.5714C103.439 44.0423 104.33 45.0206 106.273 45.4524L108.027 45.837C109.026 46.0597 109.491 46.505 109.491 47.1527C109.491 47.9556 108.635 48.5831 107.312 48.5831C106.104 48.5831 105.328 48.0636 105.086 47.0447L103.136 47.3416C103.473 49.1768 104.998 50.2092 107.326 50.2092C109.829 50.2092 111.563 48.88 111.563 47.0043C111.563 45.5401 110.632 44.636 108.729 44.1974L107.083 43.8196C105.942 43.5497 105.45 43.1651 105.457 42.4634C105.45 41.6673 106.314 41.1005 107.461 41.1005C108.716 41.1005 109.296 41.7955 109.532 42.4904L111.36 42.1665ZM113.781 50H115.798V39.6364H113.781V50ZM114.8 38.0373C115.495 38.0373 116.075 37.4975 116.075 36.8363C116.075 36.1751 115.495 35.6286 114.8 35.6286C114.098 35.6286 113.525 36.1751 113.525 36.8363C113.525 37.4975 114.098 38.0373 114.8 38.0373ZM122.878 50.2092C125.799 50.2092 127.709 48.0703 127.709 44.8654C127.709 41.6403 125.799 39.5014 122.878 39.5014C119.956 39.5014 118.047 41.6403 118.047 44.8654C118.047 48.0703 119.956 50.2092 122.878 50.2092ZM122.885 48.5156C120.975 48.5156 120.085 46.8491 120.085 44.8587C120.085 42.875 120.975 41.1882 122.885 41.1882C124.781 41.1882 125.671 42.875 125.671 44.8587C125.671 46.8491 124.781 48.5156 122.885 48.5156ZM131.978 43.8466C131.978 42.1935 132.99 41.2489 134.394 41.2489C135.763 41.2489 136.593 42.1463 136.593 43.6509V50H138.611V43.408C138.611 40.8441 137.2 39.5014 135.082 39.5014C133.523 39.5014 132.504 40.2234 132.025 41.3232H131.897V39.6364H129.961V50H131.978V43.8466ZM149.082 42.1665C148.664 40.554 147.402 39.5014 145.162 39.5014C142.821 39.5014 141.161 40.7362 141.161 42.5714C141.161 44.0423 142.052 45.0206 143.995 45.4524L145.749 45.837C146.748 46.0597 147.213 46.505 147.213 47.1527C147.213 47.9556 146.356 48.5831 145.034 48.5831C143.826 48.5831 143.05 48.0636 142.807 47.0447L140.857 47.3416C141.195 49.1768 142.72 50.2092 145.047 50.2092C147.551 50.2092 149.285 48.88 149.285 47.0043C149.285 45.5401 148.353 44.636 146.451 44.1974L144.804 43.8196C143.664 43.5497 143.172 43.1651 143.178 42.4634C143.172 41.6673 144.035 41.1005 145.182 41.1005C146.437 41.1005 147.017 41.7955 147.254 42.4904L149.082 42.1665Z" fill="#232D42"/>
<path d="M466.773 36.6136H470.432V47H471.841V36.6136H475.5V35.3636H466.773V36.6136ZM478.834 41.75C478.834 40.2273 479.805 39.3636 481.129 39.3636C482.391 39.3636 483.152 40.1591 483.152 41.5455V47H484.493V41.4545C484.493 39.2102 483.3 38.1591 481.516 38.1591C480.141 38.1591 479.357 38.733 478.947 39.6364H478.834V35.3636H477.493V47H478.834V41.75ZM486.946 47H488.287V38.2727H486.946V47ZM487.628 36.8182C488.151 36.8182 488.582 36.4091 488.582 35.9091C488.582 35.4091 488.151 35 487.628 35C487.105 35 486.673 35.4091 486.673 35.9091C486.673 36.4091 487.105 36.8182 487.628 36.8182ZM496.925 40.2273C496.504 38.9886 495.561 38.1591 493.834 38.1591C491.993 38.1591 490.629 39.2045 490.629 40.6818C490.629 41.8864 491.345 42.6932 492.947 43.0682L494.402 43.4091C495.283 43.6136 495.697 44.0341 495.697 44.6364C495.697 45.3864 494.902 46 493.652 46C492.555 46 491.868 45.5284 491.629 44.5909L490.357 44.9091C490.669 46.392 491.891 47.1818 493.675 47.1818C495.703 47.1818 497.084 46.0739 497.084 44.5682C497.084 43.3523 496.322 42.5852 494.766 42.2045L493.47 41.8864C492.436 41.6307 491.97 41.2841 491.97 40.6136C491.97 39.8636 492.766 39.3182 493.834 39.3182C495.004 39.3182 495.487 39.9659 495.72 40.5682L496.925 40.2273ZM505.898 47H507.352L509.92 37.7273H510.011L512.58 47H514.034L517.216 35.3636H515.784L513.352 44.8409H513.239L510.761 35.3636H509.17L506.693 44.8409H506.58L504.148 35.3636H502.716L505.898 47ZM521.636 47.1818C523.409 47.1818 524.705 46.2955 525.114 44.9773L523.818 44.6136C523.477 45.5227 522.688 45.9773 521.636 45.9773C520.062 45.9773 518.977 44.9602 518.915 43.0909H525.25V42.5227C525.25 39.2727 523.318 38.1591 521.5 38.1591C519.136 38.1591 517.568 40.0227 517.568 42.7045C517.568 45.3864 519.114 47.1818 521.636 47.1818ZM518.915 41.9318C519.006 40.5739 519.966 39.3636 521.5 39.3636C522.955 39.3636 523.886 40.4545 523.886 41.9318H518.915ZM530.949 47.1818C532.722 47.1818 534.017 46.2955 534.426 44.9773L533.131 44.6136C532.79 45.5227 532 45.9773 530.949 45.9773C529.375 45.9773 528.29 44.9602 528.227 43.0909H534.562V42.5227C534.562 39.2727 532.631 38.1591 530.812 38.1591C528.449 38.1591 526.881 40.0227 526.881 42.7045C526.881 45.3864 528.426 47.1818 530.949 47.1818ZM528.227 41.9318C528.318 40.5739 529.278 39.3636 530.812 39.3636C532.267 39.3636 533.199 40.4545 533.199 41.9318H528.227ZM536.602 47H537.943V43.733L538.881 42.8636L542.148 47H543.852L539.892 42L543.58 38.2727H541.92L538.102 42.1591H537.943V35.3636H536.602V47Z" fill="#8A92A6"/>
<path d="M572 37.5L565 44.5L558 37.5" stroke="#232D42" stroke-width="1.5" stroke-linecap="round" stroke-linejoin="round"/>
<path d="M41.3026 87.5455H40.1577L37.794 89.1151V90.2784L40.1023 88.7457H40.1577V97H41.3026V87.5455ZM47.1609 97.1293C49.0721 97.1523 50.3185 95.712 50.3185 93.9531C50.3185 92.125 48.9659 90.8139 47.3455 90.8139C46.3714 90.8139 45.5359 91.2894 45.0188 92.0696H44.945C44.9496 89.766 45.8452 88.4318 47.3086 88.4318C48.3058 88.4318 48.9059 89.0597 49.1183 89.9091H50.2447C50.0138 88.4411 48.8967 87.4162 47.3086 87.4162C45.1804 87.4162 43.8739 89.2997 43.8739 92.642C43.8739 96.1367 45.6097 97.1108 47.1609 97.1293ZM47.1609 96.1136C45.9744 96.1136 45.1065 95.1026 45.1112 93.9716C45.1158 92.8406 46.0252 91.8295 47.1978 91.8295C48.3565 91.8295 49.2106 92.7805 49.2106 93.9531C49.2106 95.1534 48.3196 96.1136 47.1609 96.1136ZM55.2178 97.1293C57.3044 97.1293 58.5047 95.3612 58.5047 92.2727C58.5047 89.2074 57.286 87.4162 55.2178 87.4162C53.1496 87.4162 51.9308 89.2074 51.9308 92.2727C51.9308 95.3612 53.1311 97.1293 55.2178 97.1293ZM55.2178 96.1136C53.8421 96.1136 53.0388 94.7333 53.0388 92.2727C53.0388 89.8168 53.8513 88.4134 55.2178 88.4134C56.5843 88.4134 57.3968 89.8168 57.3968 92.2727C57.3968 94.7333 56.5935 96.1136 55.2178 96.1136Z" fill="#232D42"/>
<path d="M41.3026 136.545H40.1577L37.794 138.115V139.278L40.1023 137.746H40.1577V146H41.3026V136.545ZM44.0217 146H49.9862V144.984H45.5913V144.911L47.7148 142.639C49.3398 140.899 49.82 140.086 49.82 139.038C49.82 137.58 48.6381 136.416 46.9762 136.416C45.3189 136.416 44.0586 137.543 44.0586 139.205H45.1481C45.1481 138.129 45.8452 137.413 46.9393 137.413C47.9641 137.413 48.7489 138.041 48.7489 139.038C48.7489 139.911 48.2365 140.557 47.1424 141.753L44.0217 145.169V146ZM54.9766 146.129C57.0632 146.129 58.2635 144.361 58.2635 141.273C58.2635 138.207 57.0447 136.416 54.9766 136.416C52.9084 136.416 51.6896 138.207 51.6896 141.273C51.6896 144.361 52.8899 146.129 54.9766 146.129ZM54.9766 145.114C53.6009 145.114 52.7976 143.733 52.7976 141.273C52.7976 138.817 53.6101 137.413 54.9766 137.413C56.343 137.413 57.1555 138.817 57.1555 141.273C57.1555 143.733 56.3523 145.114 54.9766 145.114Z" fill="#232D42"/>
<path d="M44.0071 195.129C45.8952 195.129 47.2109 194.026 47.2202 192.489C47.2109 191.293 46.4123 190.277 45.392 190.088V190.033C46.2784 189.802 46.8601 188.934 46.8693 187.928C46.8601 186.487 45.6506 185.416 44.0071 185.416C42.3452 185.416 41.1357 186.487 41.1449 187.928C41.1357 188.934 41.7173 189.802 42.6222 190.033V190.088C41.5835 190.277 40.7848 191.293 40.794 192.489C40.7848 194.026 42.1005 195.129 44.0071 195.129ZM44.0071 194.114C42.7099 194.114 41.9112 193.449 41.9205 192.433C41.9112 191.367 42.793 190.605 44.0071 190.605C45.2028 190.605 46.0845 191.367 46.0938 192.433C46.0845 193.449 45.2859 194.114 44.0071 194.114ZM44.0071 189.626C42.973 189.626 42.2436 188.98 42.2528 188.001C42.2436 187.041 42.9453 186.413 44.0071 186.413C45.0504 186.413 45.7521 187.041 45.7614 188.001C45.7521 188.98 45.0227 189.626 44.0071 189.626ZM52.0732 195.129C54.1599 195.129 55.3602 193.361 55.3602 190.273C55.3602 187.207 54.1414 185.416 52.0732 185.416C50.0051 185.416 48.7863 187.207 48.7863 190.273C48.7863 193.361 49.9866 195.129 52.0732 195.129ZM52.0732 194.114C50.6975 194.114 49.8943 192.733 49.8943 190.273C49.8943 187.817 50.7068 186.413 52.0732 186.413C53.4397 186.413 54.2522 187.817 54.2522 190.273C54.2522 192.733 53.449 194.114 52.0732 194.114Z" fill="#232D42"/>
<path d="M40.7571 242.061H45.2074V244H46.2969V242.061H47.5895V241.045H46.2969V234.545H44.9119L40.7571 241.119V242.061ZM45.2074 241.045H41.9943V240.972L45.1335 236.004H45.2074V241.045ZM52.4033 244.129C54.49 244.129 55.6903 242.361 55.6903 239.273C55.6903 236.207 54.4715 234.416 52.4033 234.416C50.3351 234.416 49.1164 236.207 49.1164 239.273C49.1164 242.361 50.3167 244.129 52.4033 244.129ZM52.4033 243.114C51.0276 243.114 50.2243 241.733 50.2243 239.273C50.2243 236.817 51.0368 235.413 52.4033 235.413C53.7698 235.413 54.5823 236.817 54.5823 239.273C54.5823 241.733 53.779 243.114 52.4033 243.114Z" fill="#232D42"/>
<path d="M48.0625 293.129C50.1491 293.129 51.3494 291.361 51.3494 288.273C51.3494 285.207 50.1307 283.416 48.0625 283.416C45.9943 283.416 44.7756 285.207 44.7756 288.273C44.7756 291.361 45.9759 293.129 48.0625 293.129ZM48.0625 292.114C46.6868 292.114 45.8835 290.733 45.8835 288.273C45.8835 285.817 46.696 284.413 48.0625 284.413C49.429 284.413 50.2415 285.817 50.2415 288.273C50.2415 290.733 49.4382 292.114 48.0625 292.114Z" fill="#232D42"/>
<line x1="68" y1="104.5" x2="576" y2="104.5" stroke="#E9ECEF"/>
<line x1="68" y1="152.5" x2="576" y2="152.5" stroke="#E9ECEF"/>
<line x1="68" y1="200.5" x2="576" y2="200.5" stroke="#E9ECEF"/>
<line x1="68" y1="248.5" x2="576" y2="248.5" stroke="#E9ECEF"/>
<line x1="68" y1="296.5" x2="576" y2="296.5" stroke="#E9ECEF"/>
<path d="M92 223C92 220.239 94.2386 218 97 218C99.7614 218 102 220.239 102 223V297H92V223Z" fill="#85F4FA"/>
<rect x="92" y="254.797" width="10" height="42.2009" fill="#3A57E8"/>
<path d="M142 165C142 162.239 144.239 160 147 160C149.761 160 152 162.239 152 165V297H142V165Z" fill="#85F4FA"/>
<rect x="142" y="223.816" width="10" height="73.1838" fill="#3A57E8"/>
<path d="M192 196C192 193.239 194.239 191 197 191C199.761 191 202 193.239 202 196V297H192V196Z" fill="#85F4FA"/>
<rect x="192" y="240.375" width="10" height="56.6239" fill="#3A57E8"/>
<path d="M242 156C242 153.239 244.239 151 247 151C249.761 151 252 153.239 252 156V297H242V156Z" fill="#85F4FA"/>
<rect x="242" y="219.008" width="10" height="77.9915" fill="#3A57E8"/>
<path d="M292 196C292 193.239 294.239 191 297 191C299.761 191 302 193.239 302 196V297H292V196Z" fill="#85F4FA"/>
<rect x="292" y="240.375" width="10" height="56.6239" fill="#3A57E8"/>
<path d="M342 136C342 133.239 344.239 131 347 131C349.761 131 352 133.239 352 136V297H342V136Z" fill="#85F4FA"/>
<rect x="342" y="208.324" width="10" height="88.6752" fill="#3A57E8"/>
<path d="M392 196C392 193.239 394.239 191 397 191C399.761 191 402 193.239 402 196V297H392V196Z" fill="#85F4FA"/>
<rect x="392" y="240.375" width="10" height="56.6239" fill="#3A57E8"/>
<path d="M442 223C442 220.239 444.239 218 447 218C449.761 218 452 220.239 452 223V297H442V223Z" fill="#85F4FA"/>
<rect x="442" y="254.801" width="10" height="42.2009" fill="#3A57E8"/>
<path d="M492 186C492 183.239 494.239 181 497 181C499.761 181 502 183.239 502 186V297H492V186Z" fill="#85F4FA"/>
<rect x="492" y="235.035" width="10" height="61.9658" fill="#3A57E8"/>
<path d="M542 196C542 193.239 544.239 191 547 191C549.761 191 552 193.239 552 196V297H542V196Z" fill="#85F4FA"/>
<rect x="542" y="240.375" width="10" height="56.6239" fill="#3A57E8"/>
<path d="M98.3153 310.909H99.4233C99.3725 309.483 98.0568 308.416 96.2287 308.416C94.419 308.416 92.9972 309.469 92.9972 311.057C92.9972 312.331 93.9205 313.088 95.3977 313.513L96.5611 313.845C97.5582 314.122 98.4446 314.473 98.4446 315.415C98.4446 316.449 97.4474 317.132 96.1364 317.132C95.0099 317.132 94.0128 316.634 93.9205 315.562H92.7386C92.8494 317.114 94.1051 318.166 96.1364 318.166C98.3153 318.166 99.5526 316.966 99.5526 315.433C99.5526 313.661 97.8722 313.088 96.8935 312.83L95.9332 312.571C95.2315 312.386 94.1051 312.017 94.1051 311.001C94.1051 310.097 94.9361 309.432 96.1918 309.432C97.3366 309.432 98.2045 309.977 98.3153 310.909Z" fill="#232D42"/>
<path d="M142.145 308.545V318H143.216V310.817H143.308L146.263 318H147.297L150.251 310.817H150.344V318H151.415V308.545H150.048L146.835 316.393H146.724L143.511 308.545H142.145Z" fill="#232D42"/>
<path d="M193.628 309.561H196.601V318H197.746V309.561H200.719V308.545H193.628V309.561Z" fill="#232D42"/>
<path d="M244.862 318H246.044L248.131 310.466H248.205L250.291 318H251.473L254.058 308.545H252.895L250.919 316.246H250.827L248.814 308.545H247.521L245.509 316.246H245.416L243.44 308.545H242.277L244.862 318Z" fill="#232D42"/>
<path d="M295.628 309.561H298.601V318H299.746V309.561H302.719V308.545H295.628V309.561Z" fill="#232D42"/>
<path d="M345.145 318H346.29V313.771H350.389V312.756H346.29V309.561H350.814V308.545H345.145V318Z" fill="#232D42"/>
<path d="M398.315 310.909H399.423C399.373 309.483 398.057 308.416 396.229 308.416C394.419 308.416 392.997 309.469 392.997 311.057C392.997 312.331 393.92 313.088 395.398 313.513L396.561 313.845C397.558 314.122 398.445 314.473 398.445 315.415C398.445 316.449 397.447 317.132 396.136 317.132C395.01 317.132 394.013 316.634 393.92 315.562H392.739C392.849 317.114 394.105 318.166 396.136 318.166C398.315 318.166 399.553 316.966 399.553 315.433C399.553 313.661 397.872 313.088 396.893 312.83L395.933 312.571C395.232 312.386 394.105 312.017 394.105 311.001C394.105 310.097 394.936 309.432 396.192 309.432C397.337 309.432 398.205 309.977 398.315 310.909Z" fill="#232D42"/>
<path d="M442.145 308.545V318H443.216V310.817H443.308L446.263 318H447.297L450.251 310.817H450.344V318H451.415V308.545H450.048L446.835 316.393H446.724L443.511 308.545H442.145Z" fill="#232D42"/>
<path d="M493.628 309.561H496.601V318H497.746V309.561H500.719V308.545H493.628V309.561Z" fill="#232D42"/>
<path d="M544.862 318H546.044L548.131 310.466H548.205L550.291 318H551.473L554.058 308.545H552.895L550.919 316.246H550.827L548.814 308.545H547.521L545.509 316.246H545.416L543.44 308.545H542.277L544.862 318Z" fill="#232D42"/>
</g>
<defs>
<filter id="filter0_d_1820_2152" x="0" y="0" width="614" height="369" filterUnits="userSpaceOnUse" color-interpolation-filters="sRGB">
<feFlood flood-opacity="0" result="BackgroundImageFix"/>
<feColorMatrix in="SourceAlpha" type="matrix" values="0 0 0 0 0 0 0 0 0 0 0 0 0 0 0 0 0 0 127 0" result="hardAlpha"/>
<feOffset dy="10"/>
<feGaussianBlur stdDeviation="6.5"/>
<feComposite in2="hardAlpha" operator="out"/>
<feColorMatrix type="matrix" values="0 0 0 0 0.0666667 0 0 0 0 0.14902 0 0 0 0 0.572549 0 0 0 0.05 0"/>
<feBlend mode="normal" in2="BackgroundImageFix" result="effect1_dropShadow_1820_2152"/>
<feBlend mode="normal" in="SourceGraphic" in2="effect1_dropShadow_1820_2152" result="shape"/>
</filter>
</defs>
</svg>
