<svg width="505" height="653" viewBox="0 0 505 653" fill="none" xmlns="http://www.w3.org/2000/svg">
<g filter="url(#filter0_d_1820_2385)">
<g clip-path="url(#clip0_1820_2385)">
<rect x="13" y="3" width="479" height="627" rx="8" fill="white"/>
<g clip-path="url(#clip1_1820_2385)">
<circle cx="64.5" cy="145.5" r="192.5" fill="url(#paint0_radial_1820_2385)"/>
<circle cx="436.5" cy="258.5" r="186.5" fill="url(#paint1_radial_1820_2385)"/>
<g filter="url(#filter1_b_1820_2385)">
<rect x="34" y="43" width="437.02" height="298" rx="24" fill="white" fill-opacity="0.25"/>
<path d="M63.4489 74.6364H58.6662L65.696 95H71.2443L78.2642 74.6364H73.4915L68.5597 90.108H68.3707L63.4489 74.6364ZM85.0206 74.6364H80.7152V95H85.0206V74.6364ZM99.6097 80.4929H103.736C103.676 76.8636 100.694 74.358 96.1594 74.358C91.695 74.358 88.4237 76.8239 88.4435 80.5227C88.4336 83.5256 90.5515 85.2457 93.9918 86.071L96.2092 86.6278C98.4265 87.1648 99.6594 87.8011 99.6694 89.1733C99.6594 90.6648 98.2475 91.679 96.06 91.679C93.8228 91.679 92.212 90.6449 92.0728 88.6065H87.9066C88.016 93.0114 91.168 95.2884 96.1097 95.2884C101.081 95.2884 104.005 92.9119 104.015 89.1832C104.005 85.7926 101.449 83.9929 97.9094 83.1974L96.0799 82.7599C94.31 82.3523 92.8285 81.696 92.8583 80.2344C92.8583 78.9219 94.0217 77.9574 96.1296 77.9574C98.1879 77.9574 99.4506 78.892 99.6097 80.4929ZM109.956 95L111.467 90.3565H118.815L120.326 95H124.94L117.92 74.6364H112.372L105.342 95H109.956ZM112.561 86.9957L115.066 79.2898H115.225L117.731 86.9957H112.561Z" fill="white"/>
<path d="M59.1449 116H60.2898V112.547H62.358C64.56 112.547 65.5526 111.208 65.5526 109.537C65.5526 107.866 64.56 106.545 62.3395 106.545H59.1449V116ZM60.2898 111.531V107.561H62.3026C63.8398 107.561 64.4261 108.401 64.4261 109.537C64.4261 110.673 63.8398 111.531 62.321 111.531H60.2898ZM67.3968 116H68.5417V112.307H70.6099C70.693 112.307 70.7715 112.307 70.85 112.302L72.8443 116H74.1738L72.0364 112.094C73.2413 111.684 73.8045 110.7 73.8045 109.445C73.8045 107.773 72.8074 106.545 70.5914 106.545H67.3968V116ZM68.5417 111.273V107.561H70.5545C72.0872 107.561 72.6781 108.309 72.6781 109.445C72.6781 110.58 72.0872 111.273 70.573 111.273H68.5417ZM75.7123 116H81.4921V114.984H76.8572V111.771H81.1228V110.756H76.8572V107.561H81.4182V106.545H75.7123V116ZM83.4818 106.545V116H84.5528V108.817H84.6452L87.5997 116H88.6338L91.5883 108.817H91.6807V116H92.7517V106.545H91.3852L88.1721 114.393H88.0613L84.8483 106.545H83.4818ZM96.1921 106.545H95.0472V116H96.1921V106.545ZM104.692 106.545V112.713C104.692 114.098 103.741 115.095 102.162 115.095C100.584 115.095 99.6325 114.098 99.6325 112.713V106.545H98.4877V112.805C98.4877 114.744 99.9372 116.166 102.162 116.166C104.388 116.166 105.837 114.744 105.837 112.805V106.545H104.692ZM108.123 106.545V116H109.194V108.817H109.287L112.241 116H113.275L116.23 108.817H116.322V116H117.393V106.545H116.027L112.814 114.393H112.703L109.49 106.545H108.123ZM123.733 116L124.684 113.322H128.506L129.457 116H130.658L127.186 106.545H126.004L122.533 116H123.733ZM125.044 112.307L126.558 108.041H126.632L128.146 112.307H125.044ZM139.294 109.5C138.943 107.561 137.392 106.416 135.49 106.416C133.071 106.416 131.317 108.281 131.317 111.273C131.317 114.264 133.071 116.129 135.49 116.129C137.392 116.129 138.943 114.984 139.294 113.045H138.149C137.872 114.357 136.746 115.058 135.49 115.058C133.773 115.058 132.425 113.729 132.425 111.273C132.425 108.817 133.773 107.487 135.49 107.487C136.746 107.487 137.872 108.189 138.149 109.5H139.294ZM148.752 109.5C148.401 107.561 146.85 106.416 144.948 106.416C142.529 106.416 140.775 108.281 140.775 111.273C140.775 114.264 142.529 116.129 144.948 116.129C146.85 116.129 148.401 114.984 148.752 113.045H147.607C147.33 114.357 146.204 115.058 144.948 115.058C143.231 115.058 141.883 113.729 141.883 111.273C141.883 108.817 143.231 107.487 144.948 107.487C146.204 107.487 147.33 108.189 147.607 109.5H148.752ZM158.579 111.273C158.579 108.281 156.825 106.416 154.406 106.416C151.987 106.416 150.233 108.281 150.233 111.273C150.233 114.264 151.987 116.129 154.406 116.129C156.825 116.129 158.579 114.264 158.579 111.273ZM157.471 111.273C157.471 113.729 156.123 115.058 154.406 115.058C152.689 115.058 151.341 113.729 151.341 111.273C151.341 108.817 152.689 107.487 154.406 107.487C156.123 107.487 157.471 108.817 157.471 111.273ZM166.709 106.545V112.713C166.709 114.098 165.758 115.095 164.179 115.095C162.6 115.095 161.649 114.098 161.649 112.713V106.545H160.504V112.805C160.504 114.744 161.954 116.166 164.179 116.166C166.404 116.166 167.854 114.744 167.854 112.805V106.545H166.709ZM177.637 106.545H176.511V113.987H176.418L171.248 106.545H170.14V116H171.285V108.577H171.377L176.529 116H177.637V106.545ZM179.411 107.561H182.384V116H183.529V107.561H186.502V106.545H179.411V107.561Z" fill="white"/>
<circle opacity="0.25" cx="367.5" cy="102.5" r="35.5" fill="white"/>
<circle opacity="0.5" cx="411.52" cy="102.5" r="35.5" fill="white"/>
<path d="M65.1303 209.229C68.4954 209.229 70.8967 206.852 70.8885 203.593C70.8967 200.359 68.6424 198.006 65.5959 198.006C64.3544 198.006 63.2028 198.48 62.5494 199.117H62.4513L62.9822 194.437H70.0799V192.273H60.8832L59.9439 200.702L62.2553 201.045C62.8842 200.481 64.0114 200.097 65.0241 200.097C67.0089 200.114 68.4464 201.6 68.4464 203.642C68.4464 205.651 67.0497 207.105 65.1303 207.105C63.5131 207.105 62.2308 206.076 62.1001 204.638H59.6499C59.7479 207.301 62.0593 209.229 65.1303 209.229ZM74.4353 209H77.0734L84.3508 194.511V192.273H73.2918V194.437H81.7371V194.56L74.4353 209ZM92.5061 209.229C95.9855 209.229 98.444 207.252 98.4603 204.54C98.444 202.433 96.9656 200.661 95.0953 200.326V200.228C96.7206 199.836 97.8232 198.309 97.8396 196.504C97.8232 193.947 95.569 192.044 92.5061 192.044C89.4106 192.044 87.1563 193.947 87.1727 196.504C87.1563 198.3 88.259 199.836 89.917 200.228V200.326C88.0139 200.661 86.5356 202.433 86.5519 204.54C86.5356 207.252 88.9941 209.229 92.5061 209.229ZM92.5061 207.162C90.4152 207.162 89.0921 206.051 89.1084 204.377C89.0921 202.637 90.5296 201.396 92.5061 201.396C94.45 201.396 95.8875 202.637 95.9039 204.377C95.8875 206.051 94.5725 207.162 92.5061 207.162ZM92.5061 199.379C90.8154 199.379 89.6148 198.309 89.6311 196.716C89.6148 195.148 90.7746 194.11 92.5061 194.11C94.205 194.11 95.3648 195.148 95.3811 196.716C95.3648 198.309 94.1723 199.379 92.5061 199.379ZM106.949 192.044C103.436 192.011 101.141 194.535 101.141 197.704C101.15 200.898 103.461 203.201 106.36 203.201C108.133 203.201 109.652 202.335 110.51 200.93H110.64C110.632 204.777 109.186 207.023 106.736 207.023C105.135 207.023 104.106 206.043 103.779 204.614H101.288C101.656 207.317 103.747 209.229 106.736 209.229C110.624 209.229 113.058 205.888 113.058 200.032C113.05 193.923 109.93 192.069 106.949 192.044ZM106.957 194.168C108.892 194.168 110.322 195.809 110.322 197.647C110.33 199.509 108.819 201.143 106.908 201.143C104.988 201.143 103.6 199.607 103.592 197.672C103.592 195.728 105.037 194.168 106.957 194.168Z" fill="white"/>
<path d="M148.113 201.682H149.885L149.73 198.235L152.638 200.105L153.528 198.554L150.441 196.977L153.528 195.401L152.638 193.849L149.73 195.719L149.885 192.273H148.113L148.268 195.719L145.36 193.849L144.47 195.401L147.558 196.977L144.47 198.554L145.36 200.105L148.268 198.235L148.113 201.682ZM166.194 201.682H167.966L167.811 198.235L170.719 200.105L171.609 198.554L168.522 196.977L171.609 195.401L170.719 193.849L167.811 195.719L167.966 192.273H166.194L166.349 195.719L163.441 193.849L162.551 195.401L165.639 196.977L162.551 198.554L163.441 200.105L166.349 198.235L166.194 201.682ZM184.275 201.682H186.047L185.892 198.235L188.8 200.105L189.69 198.554L186.603 196.977L189.69 195.401L188.8 193.849L185.892 195.719L186.047 192.273H184.275L184.43 195.719L181.523 193.849L180.632 195.401L183.72 196.977L180.632 198.554L181.523 200.105L184.43 198.235L184.275 201.682ZM202.356 201.682H204.128L203.973 198.235L206.881 200.105L207.771 198.554L204.684 196.977L207.771 195.401L206.881 193.849L203.973 195.719L204.128 192.273H202.356L202.511 195.719L199.604 193.849L198.713 195.401L201.801 196.977L198.713 198.554L199.604 200.105L202.511 198.235L202.356 201.682Z" fill="white"/>
<path d="M243.113 201.682H244.885L244.73 198.235L247.638 200.105L248.528 198.554L245.441 196.977L248.528 195.401L247.638 193.849L244.73 195.719L244.885 192.273H243.113L243.268 195.719L240.36 193.849L239.47 195.401L242.558 196.977L239.47 198.554L240.36 200.105L243.268 198.235L243.113 201.682ZM261.194 201.682H262.966L262.811 198.235L265.719 200.105L266.609 198.554L263.522 196.977L266.609 195.401L265.719 193.849L262.811 195.719L262.966 192.273H261.194L261.349 195.719L258.441 193.849L257.551 195.401L260.639 196.977L257.551 198.554L258.441 200.105L261.349 198.235L261.194 201.682ZM279.275 201.682H281.047L280.892 198.235L283.8 200.105L284.69 198.554L281.603 196.977L284.69 195.401L283.8 193.849L280.892 195.719L281.047 192.273H279.275L279.43 195.719L276.523 193.849L275.632 195.401L278.72 196.977L275.632 198.554L276.523 200.105L279.43 198.235L279.275 201.682ZM297.356 201.682H299.128L298.973 198.235L301.881 200.105L302.771 198.554L299.684 196.977L302.771 195.401L301.881 193.849L298.973 195.719L299.128 192.273H297.356L297.511 195.719L294.604 193.849L293.713 195.401L296.801 196.977L293.713 198.554L294.604 200.105L297.511 198.235L297.356 201.682Z" fill="white"/>
<path d="M334.609 209H345.619V206.836H338.088V206.713L341.413 203.234C344.475 200.138 345.349 198.66 345.349 196.789C345.349 194.102 343.161 192.044 340.008 192.044C336.88 192.044 334.593 194.07 334.593 197.124H337.002C336.994 195.327 338.154 194.151 339.959 194.151C341.658 194.151 342.948 195.197 342.948 196.863C342.948 198.341 342.066 199.403 340.269 201.306L334.609 207.17V209ZM354.366 209.229C357.846 209.229 360.304 207.252 360.321 204.54C360.304 202.433 358.826 200.661 356.956 200.326V200.228C358.581 199.836 359.684 198.309 359.7 196.504C359.684 193.947 357.429 192.044 354.366 192.044C351.271 192.044 349.017 193.947 349.033 196.504C349.017 198.3 350.119 199.836 351.777 200.228V200.326C349.874 200.661 348.396 202.433 348.412 204.54C348.396 207.252 350.854 209.229 354.366 209.229ZM354.366 207.162C352.276 207.162 350.952 206.051 350.969 204.377C350.952 202.637 352.39 201.396 354.366 201.396C356.31 201.396 357.748 202.637 357.764 204.377C357.748 206.051 356.433 207.162 354.366 207.162ZM354.366 199.379C352.676 199.379 351.475 198.309 351.491 196.716C351.475 195.148 352.635 194.11 354.366 194.11C356.065 194.11 357.225 195.148 357.241 196.716C357.225 198.309 356.033 199.379 354.366 199.379ZM362.896 205.733H370.826V209H373.236V205.733H375.449V203.593H373.236V192.273H370.124L362.896 203.691V205.733ZM370.843 203.593H365.542V203.462L370.712 195.278H370.843V203.593ZM378.859 209H381.497L388.775 194.511V192.273H377.716V194.437H386.161V194.56L378.859 209Z" fill="white"/>
<path d="M65.4063 269.5C65.1094 267.859 63.7969 266.891 62.1875 266.891C60.1406 266.891 58.6563 268.469 58.6563 271C58.6563 273.531 60.1406 275.109 62.1875 275.109C63.7969 275.109 65.1094 274.141 65.4063 272.5H64.4375C64.2031 273.609 63.25 274.203 62.1875 274.203C60.7344 274.203 59.5938 273.078 59.5938 271C59.5938 268.922 60.7344 267.797 62.1875 267.797C63.25 267.797 64.2031 268.391 64.4375 269.5H65.4063ZM68.6123 275.141C69.6592 275.141 70.2061 274.578 70.3936 274.187H70.4404V275H71.3623V271.047C71.3623 269.141 69.9092 268.922 69.1436 268.922C68.2373 268.922 67.2061 269.234 66.7373 270.328L67.6123 270.641C67.8154 270.203 68.2959 269.734 69.1748 269.734C70.0225 269.734 70.4404 270.184 70.4404 270.953V270.984C70.4404 271.43 69.9873 271.391 68.8936 271.531C67.7803 271.676 66.5654 271.922 66.5654 273.297C66.5654 274.469 67.4717 275.141 68.6123 275.141ZM68.7529 274.312C68.0186 274.312 67.4873 273.984 67.4873 273.344C67.4873 272.641 68.1279 272.422 68.8467 272.328C69.2373 272.281 70.2842 272.172 70.4404 271.984V272.828C70.4404 273.578 69.8467 274.312 68.7529 274.312ZM73.0449 275H73.9668V271.203C73.9668 270.391 74.6074 269.797 75.4824 269.797C75.7285 269.797 75.9824 269.844 76.0449 269.859V268.922C75.9395 268.914 75.6973 268.906 75.5605 268.906C74.8418 268.906 74.2168 269.312 73.998 269.906H73.9355V269H73.0449V275ZM79.2207 275.125C80.377 275.125 80.7676 274.406 80.9707 274.078H81.0801V275H81.9707V267H81.0488V269.953H80.9707C80.7676 269.641 80.4082 268.922 79.2363 268.922C77.7207 268.922 76.6738 270.125 76.6738 272.016C76.6738 273.922 77.7207 275.125 79.2207 275.125ZM79.3457 274.297C78.1895 274.297 77.5957 273.281 77.5957 272C77.5957 270.734 78.1738 269.75 79.3457 269.75C80.4707 269.75 81.0645 270.656 81.0645 272C81.0645 273.359 80.4551 274.297 79.3457 274.297ZM87.8027 271.391C87.8027 270.344 88.4707 269.75 89.3809 269.75C90.248 269.75 90.7715 270.297 90.7715 271.25V275H91.6934V271.188C91.6934 269.645 90.873 268.922 89.6465 268.922C88.7012 268.922 88.1621 269.316 87.8809 269.937H87.8027V267H86.8809V275H87.8027V271.391ZM95.8174 275.125C97.4424 275.125 98.5361 273.891 98.5361 272.031C98.5361 270.156 97.4424 268.922 95.8174 268.922C94.1924 268.922 93.0986 270.156 93.0986 272.031C93.0986 273.891 94.1924 275.125 95.8174 275.125ZM95.8174 274.297C94.583 274.297 94.0205 273.234 94.0205 272.031C94.0205 270.828 94.583 269.75 95.8174 269.75C97.0518 269.75 97.6143 270.828 97.6143 272.031C97.6143 273.234 97.0518 274.297 95.8174 274.297ZM100.865 267H99.9434V275H100.865V267ZM104.819 275.125C105.976 275.125 106.366 274.406 106.569 274.078H106.679V275H107.569V267H106.647V269.953H106.569C106.366 269.641 106.007 268.922 104.835 268.922C103.319 268.922 102.272 270.125 102.272 272.016C102.272 273.922 103.319 275.125 104.819 275.125ZM104.944 274.297C103.788 274.297 103.194 273.281 103.194 272C103.194 270.734 103.772 269.75 104.944 269.75C106.069 269.75 106.663 270.656 106.663 272C106.663 273.359 106.054 274.297 104.944 274.297ZM111.901 275.125C113.12 275.125 114.011 274.516 114.292 273.609L113.401 273.359C113.167 273.984 112.624 274.297 111.901 274.297C110.819 274.297 110.073 273.598 110.03 272.312H114.386V271.922C114.386 269.687 113.058 268.922 111.808 268.922C110.183 268.922 109.104 270.203 109.104 272.047C109.104 273.891 110.167 275.125 111.901 275.125ZM110.03 271.516C110.093 270.582 110.753 269.75 111.808 269.75C112.808 269.75 113.448 270.5 113.448 271.516H110.03ZM115.788 275H116.71V271.203C116.71 270.391 117.351 269.797 118.226 269.797C118.472 269.797 118.726 269.844 118.788 269.859V268.922C118.683 268.914 118.44 268.906 118.304 268.906C117.585 268.906 116.96 269.312 116.741 269.906H116.679V269H115.788V275Z" fill="white"/>
<path d="M59.5181 293.182V307H61.5018V296.994H61.63L65.7053 306.98H67.3516L71.4268 297.001H71.555V307H73.5387V293.182H71.0085L66.6094 303.923H66.4474L62.0483 293.182H59.5181ZM76.4079 307H78.4253V296.636H76.4079V307ZM77.4268 295.037C78.1217 295.037 78.702 294.498 78.702 293.836C78.702 293.175 78.1217 292.629 77.4268 292.629C76.7251 292.629 76.1515 293.175 76.1515 293.836C76.1515 294.498 76.7251 295.037 77.4268 295.037ZM81.1394 307H83.1568V303.323L84.1621 302.317L87.6841 307H90.1603L85.6802 301.083L89.877 296.636H87.4615L83.3322 301.022H83.1568V293.182H81.1394V307ZM95.7554 307.209C98.0157 307.209 99.6148 306.096 100.074 304.409L98.1642 304.065C97.7998 305.043 96.9227 305.543 95.7757 305.543C94.0484 305.543 92.8879 304.423 92.8339 302.425H100.202V301.71C100.202 297.966 97.9617 296.501 95.6137 296.501C92.7259 296.501 90.8232 298.701 90.8232 301.886C90.8232 305.104 92.699 307.209 95.7554 307.209ZM92.8406 300.914C92.9216 299.443 93.9877 298.168 95.6272 298.168C97.1926 298.168 98.2181 299.328 98.2249 300.914H92.8406ZM115.167 296.812H117.178C117.117 294.599 115.16 292.993 112.353 292.993C109.58 292.993 107.455 294.578 107.455 296.96C107.455 298.883 108.831 300.01 111.051 300.61L112.684 301.056C114.162 301.447 115.302 301.933 115.302 303.161C115.302 304.51 114.013 305.401 112.239 305.401C110.633 305.401 109.297 304.686 109.176 303.181H107.084C107.219 305.684 109.155 307.229 112.252 307.229C115.498 307.229 117.367 305.522 117.367 303.181C117.367 300.691 115.147 299.727 113.392 299.295L112.043 298.944C110.964 298.667 109.526 298.161 109.533 296.839C109.533 295.665 110.606 294.794 112.306 294.794C113.892 294.794 115.019 295.537 115.167 296.812ZM119.696 307H121.713V300.61C121.713 299.214 122.692 298.242 123.839 298.242C124.959 298.242 125.735 298.984 125.735 300.111V307H127.745V300.395C127.745 299.146 128.508 298.242 129.824 298.242C130.89 298.242 131.767 298.836 131.767 300.239V307H133.784V300.05C133.784 297.682 132.462 296.501 130.586 296.501C129.095 296.501 127.975 297.217 127.475 298.323H127.368C126.915 297.19 125.964 296.501 124.581 296.501C123.211 296.501 122.192 297.183 121.761 298.323H121.632V296.636H119.696V307ZM136.488 307H138.505V296.636H136.488V307ZM137.507 295.037C138.202 295.037 138.782 294.498 138.782 293.836C138.782 293.175 138.202 292.629 137.507 292.629C136.805 292.629 136.232 293.175 136.232 293.836C136.232 294.498 136.805 295.037 137.507 295.037ZM146.057 296.636H143.932V294.153H141.914V296.636H140.396V298.256H141.914V304.375C141.908 306.258 143.345 307.169 144.937 307.135C145.578 307.128 146.01 307.007 146.246 306.919L145.882 305.252C145.747 305.279 145.497 305.34 145.173 305.34C144.519 305.34 143.932 305.124 143.932 303.957V298.256H146.057V296.636ZM150.529 300.847C150.529 299.194 151.575 298.249 153.012 298.249C154.402 298.249 155.232 299.133 155.232 300.651V307H157.249V300.408C157.249 297.824 155.832 296.501 153.7 296.501C152.087 296.501 151.116 297.203 150.63 298.323H150.502V293.182H148.511V307H150.529V300.847Z" fill="white"/>
<path d="M388.969 275H393.859V274.141H389.938V271.422H393.547V270.562H389.938V267.859H393.797V267H388.969V275ZM396.105 269H395.043L396.949 272L395.043 275H396.105L397.543 272.672L398.98 275H400.043L398.105 272L400.043 269H398.98L397.543 271.453L396.105 269ZM401.358 277.25H402.28V274.078H402.358C402.562 274.406 402.952 275.125 404.108 275.125C405.608 275.125 406.655 273.922 406.655 272.016C406.655 270.125 405.608 268.922 404.093 268.922C402.921 268.922 402.562 269.641 402.358 269.953H402.249V269H401.358V277.25ZM402.265 272C402.265 270.656 402.858 269.75 403.983 269.75C405.155 269.75 405.733 270.734 405.733 272C405.733 273.281 405.14 274.297 403.983 274.297C402.874 274.297 402.265 273.359 402.265 272ZM408.062 275H408.983V269H408.062V275ZM408.53 268C408.89 268 409.187 267.719 409.187 267.375C409.187 267.031 408.89 266.75 408.53 266.75C408.171 266.75 407.874 267.031 407.874 267.375C407.874 267.719 408.171 268 408.53 268ZM410.672 275H411.594V271.203C411.594 270.391 412.234 269.797 413.109 269.797C413.355 269.797 413.609 269.844 413.672 269.859V268.922C413.566 268.914 413.324 268.906 413.188 268.906C412.469 268.906 411.844 269.312 411.625 269.906H411.562V269H410.672V275ZM417.098 275.125C418.316 275.125 419.207 274.516 419.488 273.609L418.598 273.359C418.363 273.984 417.82 274.297 417.098 274.297C416.016 274.297 415.27 273.598 415.227 272.312H419.582V271.922C419.582 269.687 418.254 268.922 417.004 268.922C415.379 268.922 414.301 270.203 414.301 272.047C414.301 273.891 415.363 275.125 417.098 275.125ZM415.227 271.516C415.289 270.582 415.949 269.75 417.004 269.75C418.004 269.75 418.645 270.5 418.645 271.516H415.227ZM426.344 275.125C427.5 275.125 427.891 274.406 428.094 274.078H428.203V275H429.094V267H428.172V269.953H428.094C427.891 269.641 427.531 268.922 426.359 268.922C424.844 268.922 423.797 270.125 423.797 272.016C423.797 273.922 424.844 275.125 426.344 275.125ZM426.469 274.297C425.312 274.297 424.719 273.281 424.719 272C424.719 270.734 425.297 269.75 426.469 269.75C427.594 269.75 428.188 270.656 428.188 272C428.188 273.359 427.578 274.297 426.469 274.297ZM432.676 275.141C433.723 275.141 434.27 274.578 434.457 274.187H434.504V275H435.426V271.047C435.426 269.141 433.973 268.922 433.207 268.922C432.301 268.922 431.27 269.234 430.801 270.328L431.676 270.641C431.879 270.203 432.359 269.734 433.238 269.734C434.086 269.734 434.504 270.184 434.504 270.953V270.984C434.504 271.43 434.051 271.391 432.957 271.531C431.844 271.676 430.629 271.922 430.629 273.297C430.629 274.469 431.535 275.141 432.676 275.141ZM432.816 274.312C432.082 274.312 431.551 273.984 431.551 273.344C431.551 272.641 432.191 272.422 432.91 272.328C433.301 272.281 434.348 272.172 434.504 271.984V272.828C434.504 273.578 433.91 274.312 432.816 274.312ZM439.718 269H438.437V267.562H437.515V269H436.608V269.781H437.515V273.531C437.515 274.578 438.358 275.078 439.14 275.078C439.483 275.078 439.702 275.016 439.827 274.969L439.64 274.141C439.562 274.156 439.437 274.187 439.233 274.187C438.827 274.187 438.437 274.062 438.437 273.281V269.781H439.718V269ZM443.556 275.125C444.774 275.125 445.665 274.516 445.946 273.609L445.056 273.359C444.821 273.984 444.278 274.297 443.556 274.297C442.474 274.297 441.728 273.598 441.685 272.312H446.04V271.922C446.04 269.687 444.712 268.922 443.462 268.922C441.837 268.922 440.759 270.203 440.759 272.047C440.759 273.891 441.821 275.125 443.556 275.125ZM441.685 271.516C441.747 270.582 442.407 269.75 443.462 269.75C444.462 269.75 445.103 270.5 445.103 271.516H441.685Z" fill="white"/>
<path d="M394.14 307.229C397.331 307.229 399.2 304.625 399.2 300.098C399.2 295.604 397.304 292.993 394.14 292.993C390.969 292.993 389.08 295.597 389.073 300.098C389.073 304.618 390.942 307.223 394.14 307.229ZM394.14 305.428C392.271 305.428 391.144 303.552 391.144 300.098C391.151 296.657 392.278 294.761 394.14 294.761C395.995 294.761 397.129 296.657 397.129 300.098C397.129 303.552 396.002 305.428 394.14 305.428ZM406.418 307.189C409.306 307.216 411.222 305.138 411.215 302.486C411.222 299.841 409.299 297.945 406.904 297.945C405.446 297.945 404.185 298.647 403.476 299.814H403.375C403.382 296.677 404.569 294.815 406.593 294.815C407.923 294.815 408.759 295.624 409.043 296.771H411.101C410.783 294.585 409.063 292.993 406.593 292.993C403.382 292.993 401.378 295.752 401.378 300.556C401.371 305.644 403.962 307.169 406.418 307.189ZM406.411 305.435C404.805 305.435 403.631 304.085 403.631 302.533C403.638 300.988 404.866 299.639 406.459 299.639C408.037 299.639 409.198 300.914 409.191 302.513C409.198 304.146 407.99 305.435 406.411 305.435ZM418.963 292.534H417.161L412.708 309.078H414.51L418.963 292.534ZM420.65 307H429.745V305.212H423.524V305.111L426.27 302.237C428.8 299.679 429.522 298.458 429.522 296.913C429.522 294.693 427.714 292.993 425.109 292.993C422.525 292.993 420.636 294.666 420.636 297.19H422.626C422.62 295.705 423.578 294.734 425.069 294.734C426.472 294.734 427.538 295.597 427.538 296.974C427.538 298.195 426.81 299.072 425.325 300.644L420.65 305.489V307ZM437.544 293.182H435.513L432.066 295.435V297.433L435.372 295.273H435.453V307H437.544V293.182Z" fill="white"/>
<rect x="35" y="44" width="435.02" height="296" rx="23" stroke="white" stroke-width="2"/>
</g>
</g>
<rect x="37" y="405" width="32" height="32" rx="4" fill="#D8DDFA"/>
<path fill-rule="evenodd" clip-rule="evenodd" d="M61.9133 425.315L61.1444 419.12C60.676 416.91 59.3503 416 58.0865 416H47.9317C46.6502 416 45.2803 416.846 44.8826 419.12L44.1049 425.315C43.4686 429.863 45.8106 431 48.8685 431H57.1585C60.2075 431 62.4789 429.354 61.9133 425.315ZM50.0972 421.148C49.6091 421.148 49.2134 420.741 49.2134 420.239C49.2134 419.736 49.6091 419.329 50.0972 419.329C50.5853 419.329 50.981 419.736 50.981 420.239C50.981 420.741 50.5853 421.148 50.0972 421.148ZM55.0024 420.239C55.0024 420.741 55.3981 421.148 55.8862 421.148C56.3743 421.148 56.77 420.741 56.77 420.239C56.77 419.736 56.3743 419.329 55.8862 419.329C55.3981 419.329 55.0024 419.736 55.0024 420.239Z" fill="#0048B3"/>
<path opacity="0.4" d="M57.9739 415.774C57.977 415.852 57.9621 415.929 57.9303 416H56.4932C56.4654 415.928 56.4506 415.852 56.4497 415.774C56.4497 413.857 54.8899 412.302 52.9657 412.302C51.0416 412.302 49.4818 413.857 49.4818 415.774C49.495 415.849 49.495 415.925 49.4818 416H48.0099C47.9967 415.925 47.9967 415.849 48.0099 415.774C48.1217 413.106 50.325 411 53.0049 411C55.6849 411 57.8882 413.106 58 415.774H57.9739Z" fill="#0048B3"/>
<path d="M90.2955 413.364H88.8864L85.9773 415.295V416.727L88.8182 414.841H88.8864V425H90.2955V413.364ZM97.733 413.364H96.3239L93.4148 415.295V416.727L96.2557 414.841H96.3239V425H97.733V413.364ZM104.716 425.159C106.932 425.159 108.557 423.523 108.557 421.295C108.557 419.04 106.989 417.386 104.852 417.386C104.068 417.386 103.307 417.665 102.83 418.045H102.761L103.17 414.614H108.034V413.364H101.989L101.284 419.091L102.602 419.25C103.085 418.903 103.909 418.653 104.625 418.659C106.108 418.67 107.193 419.795 107.193 421.318C107.193 422.812 106.148 423.909 104.716 423.909C103.523 423.909 102.574 423.142 102.466 422.091H101.102C101.188 423.864 102.716 425.159 104.716 425.159ZM114.746 425.159C117.001 425.159 118.678 423.744 118.678 421.841C118.678 420.364 117.803 419.29 116.337 419.045V418.955C117.513 418.597 118.246 417.631 118.246 416.318C118.246 414.67 116.945 413.205 114.791 413.205C112.78 413.205 111.109 414.443 111.041 416.273H112.405C112.456 415.114 113.558 414.432 114.768 414.432C116.053 414.432 116.882 415.21 116.882 416.386C116.882 417.614 115.922 418.409 114.541 418.409H113.609V419.659H114.541C116.308 419.659 117.291 420.557 117.291 421.841C117.291 423.074 116.217 423.909 114.723 423.909C113.376 423.909 112.308 423.216 112.223 422.091H110.791C110.876 423.92 112.49 425.159 114.746 425.159Z" fill="#232D42"/>
<path d="M86.1449 446H87.2898V442.547H89.358C91.56 442.547 92.5526 441.208 92.5526 439.537C92.5526 437.866 91.56 436.545 89.3395 436.545H86.1449V446ZM87.2898 441.531V437.561H89.3026C90.8398 437.561 91.4261 438.401 91.4261 439.537C91.4261 440.673 90.8398 441.531 89.321 441.531H87.2898ZM94.2491 446H95.3386V441.513C95.3386 440.553 96.0957 439.851 97.1298 439.851C97.4206 439.851 97.7207 439.906 97.7946 439.925V438.817C97.6699 438.808 97.3837 438.798 97.2221 438.798C96.3727 438.798 95.6341 439.278 95.3755 439.98H95.3017V438.909H94.2491V446ZM101.751 446.148C103.671 446.148 104.964 444.689 104.964 442.491C104.964 440.276 103.671 438.817 101.751 438.817C99.8304 438.817 98.5378 440.276 98.5378 442.491C98.5378 444.689 99.8304 446.148 101.751 446.148ZM101.751 445.169C100.292 445.169 99.6273 443.913 99.6273 442.491C99.6273 441.07 100.292 439.795 101.751 439.795C103.21 439.795 103.874 441.07 103.874 442.491C103.874 443.913 103.21 445.169 101.751 445.169ZM109.305 446.148C110.671 446.148 111.133 445.298 111.373 444.911H111.502V446H112.555V436.545H111.465V440.036H111.373C111.133 439.666 110.708 438.817 109.323 438.817C107.532 438.817 106.295 440.239 106.295 442.473C106.295 444.726 107.532 446.148 109.305 446.148ZM109.452 445.169C108.086 445.169 107.384 443.969 107.384 442.455C107.384 440.959 108.067 439.795 109.452 439.795C110.782 439.795 111.484 440.866 111.484 442.455C111.484 444.061 110.763 445.169 109.452 445.169ZM119.17 443.101C119.17 444.43 118.154 445.04 117.342 445.04C116.437 445.04 115.791 444.375 115.791 443.341V438.909H114.701V443.415C114.701 445.224 115.661 446.092 116.991 446.092C118.062 446.092 118.764 445.52 119.096 444.8H119.17V446H120.259V438.909H119.17V443.101ZM125.136 446.148C126.705 446.148 127.739 445.188 127.924 443.932H126.835C126.631 444.707 125.985 445.169 125.136 445.169C123.843 445.169 123.012 444.098 123.012 442.455C123.012 440.848 123.862 439.795 125.136 439.795C126.096 439.795 126.668 440.386 126.835 441.033H127.924C127.739 439.703 126.613 438.817 125.117 438.817C123.197 438.817 121.923 440.331 121.923 442.491C121.923 444.615 123.141 446.148 125.136 446.148ZM132.6 438.909H131.086V437.21H129.997V438.909H128.926V439.832H129.997V444.264C129.997 445.501 130.994 446.092 131.917 446.092C132.324 446.092 132.582 446.018 132.73 445.963L132.508 444.984C132.416 445.003 132.268 445.04 132.028 445.04C131.548 445.04 131.086 444.892 131.086 443.969V439.832H132.6V438.909ZM139.135 440.497C138.794 439.491 138.027 438.817 136.624 438.817C135.128 438.817 134.02 439.666 134.02 440.866C134.02 441.845 134.602 442.501 135.904 442.805L137.085 443.082C137.801 443.249 138.138 443.59 138.138 444.08C138.138 444.689 137.492 445.188 136.476 445.188C135.585 445.188 135.026 444.804 134.833 444.043L133.798 444.301C134.052 445.506 135.045 446.148 136.494 446.148C138.143 446.148 139.264 445.248 139.264 444.024C139.264 443.036 138.646 442.413 137.381 442.104L136.328 441.845C135.488 441.637 135.11 441.356 135.11 440.811C135.11 440.202 135.756 439.759 136.624 439.759C137.575 439.759 137.967 440.285 138.156 440.774L139.135 440.497Z" fill="#8A92A6"/>
<rect x="180" y="405" width="32" height="32" rx="4" fill="#CDEBEC"/>
<path opacity="0.4" fill-rule="evenodd" clip-rule="evenodd" d="M189.908 429.457C189.908 428.6 190.588 427.906 191.427 427.906C192.256 427.906 192.936 428.6 192.936 429.457C192.936 430.304 192.256 430.998 191.427 430.998C190.588 430.998 189.908 430.304 189.908 429.457ZM201.149 429.457C201.149 428.6 201.829 427.906 202.668 427.906C203.498 427.906 204.177 428.6 204.177 429.457C204.177 430.304 203.498 430.998 202.668 430.998C201.829 430.998 201.149 430.304 201.149 429.457Z" fill="#409900"/>
<path fill-rule="evenodd" clip-rule="evenodd" d="M204.177 414.928C204.786 414.928 205.186 415.142 205.585 415.612C205.985 416.081 206.055 416.755 205.965 417.366L205.016 424.06C204.836 425.347 203.757 426.295 202.488 426.295H191.586C190.257 426.295 189.158 425.254 189.048 423.908L188.129 412.784L186.62 412.519C186.221 412.447 185.941 412.049 186.011 411.641C186.081 411.223 186.47 410.947 186.88 411.009L189.263 411.376C189.603 411.438 189.853 411.723 189.883 412.07L190.073 414.356C190.103 414.683 190.362 414.928 190.682 414.928H204.177ZM198.121 420.23H200.888C201.308 420.23 201.638 419.883 201.638 419.465C201.638 419.036 201.308 418.699 200.888 418.699H198.121C197.701 418.699 197.371 419.036 197.371 419.465C197.371 419.883 197.701 420.23 198.121 420.23Z" fill="#409900"/>
<path d="M232.932 425.159C235.256 425.159 236.875 423.801 236.886 421.909C236.875 420.438 235.892 419.188 234.636 418.955V418.886C235.727 418.602 236.443 417.534 236.455 416.295C236.443 414.523 234.955 413.205 232.932 413.205C230.886 413.205 229.398 414.523 229.409 416.295C229.398 417.534 230.114 418.602 231.227 418.886V418.955C229.949 419.188 228.966 420.438 228.977 421.909C228.966 423.801 230.585 425.159 232.932 425.159ZM232.932 423.909C231.335 423.909 230.352 423.091 230.364 421.841C230.352 420.528 231.438 419.591 232.932 419.591C234.403 419.591 235.489 420.528 235.5 421.841C235.489 423.091 234.506 423.909 232.932 423.909ZM232.932 418.386C231.659 418.386 230.761 417.591 230.773 416.386C230.761 415.205 231.625 414.432 232.932 414.432C234.216 414.432 235.08 415.205 235.091 416.386C235.08 417.591 234.182 418.386 232.932 418.386ZM243.155 413.364H241.746L238.837 415.295V416.727L241.678 414.841H241.746V425H243.155V413.364ZM246.706 425H248.115V421.227L249.57 419.591L253.615 425H255.32L250.433 418.614L255.32 413.364H253.479L248.251 419.136H248.115V413.364H246.706V425Z" fill="#232D42"/>
<path d="M237.122 441.273C237.122 438.281 235.368 436.416 232.949 436.416C230.53 436.416 228.776 438.281 228.776 441.273C228.776 444.264 230.53 446.129 232.949 446.129C235.368 446.129 237.122 444.264 237.122 441.273ZM236.014 441.273C236.014 443.729 234.666 445.058 232.949 445.058C231.232 445.058 229.884 443.729 229.884 441.273C229.884 438.817 231.232 437.487 232.949 437.487C234.666 437.487 236.014 438.817 236.014 441.273ZM238.9 446H239.989V441.513C239.989 440.553 240.746 439.851 241.78 439.851C242.071 439.851 242.371 439.906 242.445 439.925V438.817C242.32 438.808 242.034 438.798 241.873 438.798C241.023 438.798 240.284 439.278 240.026 439.98H239.952V438.909H238.9V446ZM246.198 446.148C247.565 446.148 248.026 445.298 248.266 444.911H248.396V446H249.448V436.545H248.359V440.036H248.266C248.026 439.666 247.602 438.817 246.217 438.817C244.425 438.817 243.188 440.239 243.188 442.473C243.188 444.726 244.425 446.148 246.198 446.148ZM246.346 445.169C244.979 445.169 244.278 443.969 244.278 442.455C244.278 440.959 244.961 439.795 246.346 439.795C247.675 439.795 248.377 440.866 248.377 442.455C248.377 444.061 247.657 445.169 246.346 445.169ZM254.568 446.148C256.008 446.148 257.061 445.428 257.393 444.357L256.341 444.061C256.064 444.8 255.422 445.169 254.568 445.169C253.289 445.169 252.407 444.343 252.357 442.824H257.504V442.362C257.504 439.722 255.934 438.817 254.457 438.817C252.537 438.817 251.262 440.331 251.262 442.51C251.262 444.689 252.518 446.148 254.568 446.148ZM252.357 441.882C252.43 440.779 253.211 439.795 254.457 439.795C255.639 439.795 256.396 440.682 256.396 441.882H252.357ZM259.161 446H260.251V441.513C260.251 440.553 261.008 439.851 262.042 439.851C262.333 439.851 262.633 439.906 262.707 439.925V438.817C262.582 438.808 262.296 438.798 262.134 438.798C261.285 438.798 260.546 439.278 260.288 439.98H260.214V438.909H259.161V446ZM272.973 438.909H274.081C274.03 437.483 272.714 436.416 270.886 436.416C269.076 436.416 267.654 437.469 267.654 439.057C267.654 440.331 268.578 441.088 270.055 441.513L271.218 441.845C272.215 442.122 273.102 442.473 273.102 443.415C273.102 444.449 272.105 445.132 270.794 445.132C269.667 445.132 268.67 444.634 268.578 443.562H267.396C267.507 445.114 268.762 446.166 270.794 446.166C272.973 446.166 274.21 444.966 274.21 443.433C274.21 441.661 272.529 441.088 271.551 440.83L270.59 440.571C269.889 440.386 268.762 440.017 268.762 439.001C268.762 438.097 269.593 437.432 270.849 437.432C271.994 437.432 272.862 437.977 272.973 438.909ZM278.917 446.148C280.358 446.148 281.41 445.428 281.743 444.357L280.69 444.061C280.413 444.8 279.771 445.169 278.917 445.169C277.639 445.169 276.757 444.343 276.706 442.824H281.854V442.362C281.854 439.722 280.284 438.817 278.807 438.817C276.886 438.817 275.612 440.331 275.612 442.51C275.612 444.689 276.868 446.148 278.917 446.148ZM276.706 441.882C276.78 440.779 277.56 439.795 278.807 439.795C279.988 439.795 280.746 440.682 280.746 441.882H276.706ZM283.511 446H284.6V441.513C284.6 440.553 285.357 439.851 286.392 439.851C286.682 439.851 286.982 439.906 287.056 439.925V438.817C286.932 438.808 286.645 438.798 286.484 438.798C285.634 438.798 284.896 439.278 284.637 439.98H284.563V438.909H283.511V446ZM294.362 438.909H293.18L291.223 444.56H291.149L289.191 438.909H288.01L290.632 446H291.74L294.362 438.909ZM298.519 446.148C299.959 446.148 301.012 445.428 301.344 444.357L300.292 444.061C300.015 444.8 299.373 445.169 298.519 445.169C297.24 445.169 296.358 444.343 296.308 442.824H301.455V442.362C301.455 439.722 299.885 438.817 298.408 438.817C296.488 438.817 295.214 440.331 295.214 442.51C295.214 444.689 296.469 446.148 298.519 446.148ZM296.308 441.882C296.382 440.779 297.162 439.795 298.408 439.795C299.59 439.795 300.347 440.682 300.347 441.882H296.308ZM305.79 446.148C307.156 446.148 307.618 445.298 307.858 444.911H307.987V446H309.04V436.545H307.95V440.036H307.858C307.618 439.666 307.193 438.817 305.808 438.817C304.017 438.817 302.78 440.239 302.78 442.473C302.78 444.726 304.017 446.148 305.79 446.148ZM305.938 445.169C304.571 445.169 303.869 443.969 303.869 442.455C303.869 440.959 304.553 439.795 305.938 439.795C307.267 439.795 307.969 440.866 307.969 442.455C307.969 444.061 307.249 445.169 305.938 445.169Z" fill="#8A92A6"/>
<path d="M45.0938 504.545H46.9631L46.973 502.308C51.179 502 53.5852 499.594 53.5852 496.372C53.5852 492.703 50.3139 491.281 47.7287 490.645L47.0028 490.456L47.0227 484.072C48.8821 484.321 50.1548 485.355 50.3438 486.986H53.3068C53.2273 483.953 50.7216 481.686 47.0327 481.388L47.0426 479.091H45.1733L45.1634 481.408C41.5938 481.766 38.9787 483.993 38.9787 487.205C38.9787 490.038 41.0071 491.699 44.2784 492.584L45.1335 492.812L45.1136 499.584C43.1747 499.345 41.6733 498.291 41.5142 496.372H38.4318C38.6207 499.803 41.0966 502.01 45.1037 502.308L45.0938 504.545ZM46.983 499.584L47.0028 493.33C49.0213 493.886 50.5426 494.622 50.5426 496.342C50.5426 498.082 49.0909 499.305 46.983 499.584ZM45.1435 489.959C43.6619 489.521 42.0312 488.736 42.0412 487.026C42.0412 485.534 43.2244 484.371 45.1534 484.082L45.1435 489.959ZM56.5508 498.023H66.2056V502H69.1388V498.023H71.8335V495.418H69.1388V481.636H65.3505L56.5508 495.537V498.023ZM66.2255 495.418H59.7724V495.259L66.0664 485.295H66.2255V495.418ZM78.4407 499.216H75.5771L75.4776 500.33C75.2489 503.024 74.6126 505.739 74.3441 506.972H76.4521C76.9293 505.669 77.9833 502.686 78.2915 500.3L78.4407 499.216ZM88.9233 502.338C93.6264 502.338 96.3807 498.5 96.3807 491.828C96.3807 485.206 93.5866 481.358 88.9233 481.358C84.25 481.358 81.4659 485.196 81.456 491.828C81.456 498.49 84.2102 502.328 88.9233 502.338ZM88.9233 499.683C86.169 499.683 84.5085 496.919 84.5085 491.828C84.5185 486.757 86.179 483.963 88.9233 483.963C91.6577 483.963 93.3281 486.757 93.3281 491.828C93.3281 496.919 91.6676 499.683 88.9233 499.683ZM106.63 502.278C110.726 502.278 113.65 499.385 113.64 495.418C113.65 491.48 110.905 488.616 107.196 488.616C105.685 488.616 104.283 489.193 103.488 489.969H103.368L104.015 484.271H112.655V481.636H101.459L100.316 491.898L103.13 492.315C103.895 491.629 105.267 491.162 106.5 491.162C108.917 491.182 110.667 492.991 110.667 495.477C110.667 497.923 108.966 499.693 106.63 499.693C104.661 499.693 103.1 498.44 102.941 496.69H99.9577C100.077 499.932 102.891 502.278 106.63 502.278ZM124.361 502.338C129.064 502.338 131.818 498.5 131.818 491.828C131.818 485.206 129.024 481.358 124.361 481.358C119.688 481.358 116.903 485.196 116.893 491.828C116.893 498.49 119.648 502.328 124.361 502.338ZM124.361 499.683C121.607 499.683 119.946 496.919 119.946 491.828C119.956 486.757 121.616 483.963 124.361 483.963C127.095 483.963 128.766 486.757 128.766 491.828C128.766 496.919 127.105 499.683 124.361 499.683ZM138.488 499.216H135.624L135.525 500.33C135.296 503.024 134.659 505.739 134.391 506.972H136.499C136.976 505.669 138.03 502.686 138.338 500.3L138.488 499.216ZM147.911 481.636H144.918L139.837 484.957V487.901L144.71 484.719H144.829V502H147.911V481.636ZM153.42 502H166.823V499.365H157.656V499.216L161.702 494.98C165.431 491.212 166.495 489.412 166.495 487.135C166.495 483.864 163.83 481.358 159.992 481.358C156.184 481.358 153.4 483.824 153.4 487.543H156.333C156.323 485.355 157.735 483.923 159.933 483.923C162.001 483.923 163.572 485.196 163.572 487.224C163.572 489.024 162.498 490.317 160.31 492.634L153.42 499.773V502ZM174.499 499.216H171.636L171.536 500.33C171.308 503.024 170.671 505.739 170.403 506.972H172.511C172.988 505.669 174.042 502.686 174.35 500.3L174.499 499.216ZM185.037 502.278C189.193 502.278 192.245 499.793 192.235 496.412C192.245 493.837 190.684 491.987 187.98 491.57V491.411C190.108 490.864 191.49 489.193 191.48 486.906C191.49 483.913 189.034 481.358 185.116 481.358C181.377 481.358 178.375 483.615 178.275 486.926H181.248C181.318 485.057 183.078 483.923 185.076 483.923C187.154 483.923 188.517 485.186 188.507 487.065C188.517 489.034 186.936 490.327 184.679 490.327H182.958V492.832H184.679C187.502 492.832 189.133 494.264 189.133 496.312C189.133 498.291 187.413 499.634 185.017 499.634C182.809 499.634 181.089 498.5 180.97 496.69H177.848C177.977 500.011 180.92 502.278 185.037 502.278ZM203.083 502.338C207.787 502.338 210.541 498.5 210.541 491.828C210.541 485.206 207.747 481.358 203.083 481.358C198.41 481.358 195.626 485.196 195.616 491.828C195.616 498.49 198.37 502.328 203.083 502.338ZM203.083 499.683C200.329 499.683 198.669 496.919 198.669 491.828C198.679 486.757 200.339 483.963 203.083 483.963C205.818 483.963 207.488 486.757 207.488 491.828C207.488 496.919 205.828 499.683 203.083 499.683ZM221.158 502.338C225.861 502.338 228.615 498.5 228.615 491.828C228.615 485.206 225.821 481.358 221.158 481.358C216.484 481.358 213.7 485.196 213.69 491.828C213.69 498.49 216.445 502.328 221.158 502.338ZM221.158 499.683C218.403 499.683 216.743 496.919 216.743 491.828C216.753 486.757 218.413 483.963 221.158 483.963C223.892 483.963 225.562 486.757 225.562 491.828C225.562 496.919 223.902 499.683 221.158 499.683Z" fill="#232D42"/>
<rect x="382" y="479.5" width="86" height="25" rx="12.5" fill="#1AA053"/>
<path d="M398.332 487.045L401.749 492.604V496.5H402.893V492.604L406.31 487.045H404.999L402.376 491.459H402.266L399.643 487.045H398.332ZM409.52 496.648C411.441 496.648 412.733 495.189 412.733 492.991C412.733 490.776 411.441 489.317 409.52 489.317C407.6 489.317 406.307 490.776 406.307 492.991C406.307 495.189 407.6 496.648 409.52 496.648ZM409.52 495.669C408.062 495.669 407.397 494.413 407.397 492.991C407.397 491.57 408.062 490.295 409.52 490.295C410.979 490.295 411.644 491.57 411.644 492.991C411.644 494.413 410.979 495.669 409.52 495.669ZM412.627 487.045L416.044 492.604V496.5H417.188V492.604L420.605 487.045H419.294L416.671 491.459H416.561L413.938 487.045H412.627ZM425.575 496.5H431.54V495.484H427.145V495.411L429.269 493.139C430.894 491.399 431.374 490.586 431.374 489.538C431.374 488.08 430.192 486.916 428.53 486.916C426.873 486.916 425.612 488.043 425.612 489.705H426.702C426.702 488.629 427.399 487.913 428.493 487.913C429.518 487.913 430.303 488.541 430.303 489.538C430.303 490.411 429.79 491.057 428.696 492.253L425.575 495.669V496.5ZM433.022 494.561H437.472V496.5H438.562V494.561H439.854V493.545H438.562V487.045H437.177L433.022 493.619V494.561ZM437.472 493.545H434.259V493.472L437.398 488.504H437.472V493.545ZM446.404 494.727C446.404 495.761 447.05 496.629 448.25 496.629C449.432 496.629 450.078 495.761 450.078 494.727V494.229C450.078 493.195 449.451 492.327 448.25 492.327C447.069 492.327 446.404 493.195 446.404 494.229V494.727ZM441.695 489.317C441.695 490.351 442.341 491.219 443.542 491.219C444.723 491.219 445.37 490.351 445.37 489.317V488.818C445.37 487.784 444.742 486.916 443.542 486.916C442.36 486.916 441.695 487.784 441.695 488.818V489.317ZM442.046 496.5H443.098L449.598 487.045H448.546L442.046 496.5ZM447.346 494.229C447.346 493.656 447.604 493.121 448.25 493.121C448.915 493.121 449.137 493.656 449.137 494.229V494.727C449.137 495.3 448.897 495.835 448.25 495.835C447.586 495.835 447.346 495.3 447.346 494.727V494.229ZM442.637 488.818C442.637 488.246 442.895 487.71 443.542 487.71C444.206 487.71 444.428 488.246 444.428 488.818V489.317C444.428 489.889 444.188 490.425 443.542 490.425C442.877 490.425 442.637 489.889 442.637 489.317V488.818Z" fill="white"/>
<path d="M38.4091 538H45.2273V536.75H39.8182V526.364H38.4091V538ZM47.2273 538H48.5682V529.273H47.2273V538ZM47.9091 527.818C48.4318 527.818 48.8636 527.409 48.8636 526.909C48.8636 526.409 48.4318 526 47.9091 526C47.3864 526 46.9545 526.409 46.9545 526.909C46.9545 527.409 47.3864 527.818 47.9091 527.818ZM54.9105 529.273H52.956V528.386C52.956 527.523 53.3196 527.068 54.206 527.068C54.5923 527.068 54.8196 527.159 54.956 527.205L55.3423 526.045C55.1378 525.955 54.7287 525.818 54.0696 525.818C52.8196 525.818 51.6151 526.568 51.6151 528.068V529.273H50.206V530.409H51.6151V538H52.956V530.409H54.9105V529.273ZM60.0895 538.182C61.8622 538.182 63.1577 537.295 63.5668 535.977L62.2713 535.614C61.9304 536.523 61.1406 536.977 60.0895 536.977C58.5156 536.977 57.4304 535.96 57.3679 534.091H63.7031V533.523C63.7031 530.273 61.7713 529.159 59.9531 529.159C57.5895 529.159 56.0213 531.023 56.0213 533.705C56.0213 536.386 57.5668 538.182 60.0895 538.182ZM57.3679 532.932C57.4588 531.574 58.419 530.364 59.9531 530.364C61.4077 530.364 62.3395 531.455 62.3395 532.932H57.3679ZM74.0384 529.273H72.1747V527.182H70.8338V529.273H69.5156V530.409H70.8338V535.864C70.8338 537.386 72.0611 538.114 73.1974 538.114C73.6974 538.114 74.0156 538.023 74.1974 537.955L73.9247 536.75C73.8111 536.773 73.6293 536.818 73.3338 536.818C72.7429 536.818 72.1747 536.636 72.1747 535.5V530.409H74.0384V529.273ZM76.0554 538H77.3963V529.273H76.0554V538ZM76.7372 527.818C77.2599 527.818 77.6918 527.409 77.6918 526.909C77.6918 526.409 77.2599 526 76.7372 526C76.2145 526 75.7827 526.409 75.7827 526.909C75.7827 527.409 76.2145 527.818 76.7372 527.818ZM79.8523 538H81.1932V532.545C81.1932 531.267 82.125 530.364 83.1705 530.364C84.1875 530.364 84.8977 531.028 84.8977 532.023V538H86.2614V532.318C86.2614 531.193 86.9659 530.364 88.1932 530.364C89.1477 530.364 89.9659 530.869 89.9659 532.159V538H91.3068V532.159C91.3068 530.108 90.2045 529.159 88.6477 529.159C87.3977 529.159 86.483 529.733 86.0341 530.636H85.9432C85.5114 529.705 84.75 529.159 83.6023 529.159C82.4659 529.159 81.625 529.705 81.2614 530.636H81.1477V529.273H79.8523V538ZM97.4176 538.182C99.1903 538.182 100.486 537.295 100.895 535.977L99.5994 535.614C99.2585 536.523 98.4688 536.977 97.4176 536.977C95.8438 536.977 94.7585 535.96 94.696 534.091H101.031V533.523C101.031 530.273 99.0994 529.159 97.2812 529.159C94.9176 529.159 93.3494 531.023 93.3494 533.705C93.3494 536.386 94.8949 538.182 97.4176 538.182ZM94.696 532.932C94.7869 531.574 95.7472 530.364 97.2812 530.364C98.7358 530.364 99.6676 531.455 99.6676 532.932H94.696ZM113.753 531.227C113.332 529.989 112.389 529.159 110.662 529.159C108.821 529.159 107.457 530.205 107.457 531.682C107.457 532.886 108.173 533.693 109.776 534.068L111.23 534.409C112.111 534.614 112.526 535.034 112.526 535.636C112.526 536.386 111.73 537 110.48 537C109.384 537 108.696 536.528 108.457 535.591L107.185 535.909C107.497 537.392 108.719 538.182 110.503 538.182C112.531 538.182 113.912 537.074 113.912 535.568C113.912 534.352 113.151 533.585 111.594 533.205L110.298 532.886C109.264 532.631 108.798 532.284 108.798 531.614C108.798 530.864 109.594 530.318 110.662 530.318C111.832 530.318 112.315 530.966 112.548 531.568L113.753 531.227ZM118.499 538.205C120.021 538.205 120.817 537.386 121.089 536.818H121.158V538H122.499V532.25C122.499 529.477 120.385 529.159 119.271 529.159C117.953 529.159 116.453 529.614 115.771 531.205L117.044 531.659C117.339 531.023 118.038 530.341 119.317 530.341C120.55 530.341 121.158 530.994 121.158 532.114V532.159C121.158 532.807 120.499 532.75 118.908 532.955C117.288 533.165 115.521 533.523 115.521 535.523C115.521 537.227 116.839 538.205 118.499 538.205ZM118.703 537C117.635 537 116.862 536.523 116.862 535.591C116.862 534.568 117.794 534.25 118.839 534.114C119.408 534.045 120.93 533.886 121.158 533.614V534.841C121.158 535.932 120.294 537 118.703 537ZM126.287 526.364H124.946V538H126.287V526.364ZM132.402 538.182C134.175 538.182 135.47 537.295 135.879 535.977L134.584 535.614C134.243 536.523 133.453 536.977 132.402 536.977C130.828 536.977 129.743 535.96 129.68 534.091H136.016V533.523C136.016 530.273 134.084 529.159 132.266 529.159C129.902 529.159 128.334 531.023 128.334 533.705C128.334 536.386 129.879 538.182 132.402 538.182ZM129.68 532.932C129.771 531.574 130.732 530.364 132.266 530.364C133.72 530.364 134.652 531.455 134.652 532.932H129.68ZM144.237 531.227C143.817 529.989 142.874 529.159 141.146 529.159C139.305 529.159 137.942 530.205 137.942 531.682C137.942 532.886 138.658 533.693 140.26 534.068L141.714 534.409C142.595 534.614 143.01 535.034 143.01 535.636C143.01 536.386 142.214 537 140.964 537C139.868 537 139.18 536.528 138.942 535.591L137.669 535.909C137.982 537.392 139.203 538.182 140.987 538.182C143.016 538.182 144.396 537.074 144.396 535.568C144.396 534.352 143.635 533.585 142.078 533.205L140.783 532.886C139.749 532.631 139.283 532.284 139.283 531.614C139.283 530.864 140.078 530.318 141.146 530.318C142.317 530.318 142.8 530.966 143.033 531.568L144.237 531.227Z" fill="#08B1BA"/>
<rect x="47.5" y="570" width="178" height="36" rx="4" fill="#3A57E8"/>
<path d="M91.0504 581.364H89.5732L93.8459 593H95.3004L99.5732 581.364H98.0959L94.6413 591.159H94.505L91.0504 581.364ZM101.204 593H102.545V584.273H101.204V593ZM101.886 582.818C102.408 582.818 102.84 582.409 102.84 581.909C102.84 581.409 102.408 581 101.886 581C101.363 581 100.931 581.409 100.931 581.909C100.931 582.409 101.363 582.818 101.886 582.818ZM108.66 593.182C110.433 593.182 111.728 592.295 112.137 590.977L110.842 590.614C110.501 591.523 109.711 591.977 108.66 591.977C107.086 591.977 106.001 590.96 105.938 589.091H112.273V588.523C112.273 585.273 110.342 584.159 108.523 584.159C106.16 584.159 104.592 586.023 104.592 588.705C104.592 591.386 106.137 593.182 108.66 593.182ZM105.938 587.932C106.029 586.574 106.989 585.364 108.523 585.364C109.978 585.364 110.91 586.455 110.91 587.932H105.938ZM116.29 593H117.609L119.518 586.295H119.654L121.563 593H122.881L125.54 584.273H124.131L122.245 590.932H122.154L120.313 584.273H118.881L117.018 590.955H116.927L115.04 584.273H113.631L116.29 593ZM131.995 593H133.404V588.75H135.95C138.66 588.75 139.881 587.102 139.881 585.045C139.881 582.989 138.66 581.364 135.927 581.364H131.995V593ZM133.404 587.5V582.614H135.881C137.773 582.614 138.495 583.648 138.495 585.045C138.495 586.443 137.773 587.5 135.904 587.5H133.404ZM141.969 593H143.31V587.477C143.31 586.295 144.242 585.432 145.515 585.432C145.873 585.432 146.242 585.5 146.333 585.523V584.159C146.18 584.148 145.827 584.136 145.629 584.136C144.583 584.136 143.674 584.727 143.356 585.591H143.265V584.273H141.969V593ZM151.202 593.182C153.566 593.182 155.157 591.386 155.157 588.682C155.157 585.955 153.566 584.159 151.202 584.159C148.839 584.159 147.248 585.955 147.248 588.682C147.248 591.386 148.839 593.182 151.202 593.182ZM151.202 591.977C149.407 591.977 148.589 590.432 148.589 588.682C148.589 586.932 149.407 585.364 151.202 585.364C152.998 585.364 153.816 586.932 153.816 588.682C153.816 590.432 152.998 591.977 151.202 591.977ZM157.204 584.273V593.636C157.204 594.523 156.84 595.023 156.022 595.023H155.772V596.273H156.045C157.727 596.273 158.545 595.25 158.545 593.636V584.273H157.204ZM157.863 582.818C158.386 582.818 158.817 582.409 158.817 581.909C158.817 581.409 158.386 581 157.863 581C157.34 581 156.908 581.409 156.908 581.909C156.908 582.409 157.34 582.818 157.863 582.818ZM164.66 593.182C166.433 593.182 167.728 592.295 168.137 590.977L166.842 590.614C166.501 591.523 165.711 591.977 164.66 591.977C163.086 591.977 162.001 590.96 161.938 589.091H168.273V588.523C168.273 585.273 166.342 584.159 164.523 584.159C162.16 584.159 160.592 586.023 160.592 588.705C160.592 591.386 162.137 593.182 164.66 593.182ZM161.938 587.932C162.029 586.574 162.989 585.364 164.523 585.364C165.978 585.364 166.91 586.455 166.91 587.932H161.938ZM173.859 593.182C175.79 593.182 177.063 592 177.29 590.455H175.95C175.7 591.409 174.904 591.977 173.859 591.977C172.268 591.977 171.245 590.659 171.245 588.636C171.245 586.659 172.29 585.364 173.859 585.364C175.04 585.364 175.745 586.091 175.95 586.886H177.29C177.063 585.25 175.677 584.159 173.836 584.159C171.472 584.159 169.904 586.023 169.904 588.682C169.904 591.295 171.404 593.182 173.859 593.182ZM183.046 584.273H181.183V582.182H179.842V584.273H178.523V585.409H179.842V590.864C179.842 592.386 181.069 593.114 182.205 593.114C182.705 593.114 183.023 593.023 183.205 592.955L182.933 591.75C182.819 591.773 182.637 591.818 182.342 591.818C181.751 591.818 181.183 591.636 181.183 590.5V585.409H183.046V584.273Z" fill="white"/>
<rect x="279.5" y="570" width="178" height="36" rx="4" fill="#08B1BA"/>
<path d="M335.98 593L337.151 589.705H341.855L343.026 593H344.503L340.23 581.364H338.776L334.503 593H335.98ZM337.594 588.455L339.457 583.205H339.548L341.412 588.455H337.594ZM347.474 587.75C347.474 586.227 348.418 585.364 349.702 585.364C350.946 585.364 351.702 586.176 351.702 587.545V593H353.043V587.455C353.043 585.227 351.855 584.159 350.088 584.159C348.77 584.159 347.952 584.75 347.543 585.636H347.429V584.273H346.134V593H347.474V587.75ZM358.061 593.205C359.584 593.205 360.379 592.386 360.652 591.818H360.72V593H362.061V587.25C362.061 584.477 359.947 584.159 358.834 584.159C357.516 584.159 356.016 584.614 355.334 586.205L356.607 586.659C356.902 586.023 357.601 585.341 358.879 585.341C360.112 585.341 360.72 585.994 360.72 587.114V587.159C360.72 587.807 360.061 587.75 358.47 587.955C356.851 588.165 355.084 588.523 355.084 590.523C355.084 592.227 356.402 593.205 358.061 593.205ZM358.266 592C357.197 592 356.425 591.523 356.425 590.591C356.425 589.568 357.357 589.25 358.402 589.114C358.97 589.045 360.493 588.886 360.72 588.614V589.841C360.72 590.932 359.857 592 358.266 592ZM365.849 581.364H364.509V593H365.849V581.364ZM369.169 596.273C370.379 596.273 371.232 595.631 371.737 594.273L375.453 584.295L373.987 584.273L371.578 591.227H371.487L369.078 584.273H367.624L370.851 593.045L370.601 593.727C370.112 595.057 369.51 595.182 368.533 594.932L368.192 596.114C368.328 596.182 368.714 596.273 369.169 596.273ZM381.023 584.273H379.159V582.182H377.818V584.273H376.5V585.409H377.818V590.864C377.818 592.386 379.045 593.114 380.182 593.114C380.682 593.114 381 593.023 381.182 592.955L380.909 591.75C380.795 591.773 380.614 591.818 380.318 591.818C379.727 591.818 379.159 591.636 379.159 590.5V585.409H381.023V584.273ZM383.04 593H384.381V584.273H383.04V593ZM383.722 582.818C384.244 582.818 384.676 582.409 384.676 581.909C384.676 581.409 384.244 581 383.722 581C383.199 581 382.767 581.409 382.767 581.909C382.767 582.409 383.199 582.818 383.722 582.818ZM390.382 593.182C392.314 593.182 393.587 592 393.814 590.455H392.473C392.223 591.409 391.428 591.977 390.382 591.977C388.791 591.977 387.768 590.659 387.768 588.636C387.768 586.659 388.814 585.364 390.382 585.364C391.564 585.364 392.268 586.091 392.473 586.886H393.814C393.587 585.25 392.2 584.159 390.359 584.159C387.996 584.159 386.428 586.023 386.428 588.682C386.428 591.295 387.928 593.182 390.382 593.182ZM401.956 586.227C401.536 584.989 400.592 584.159 398.865 584.159C397.024 584.159 395.661 585.205 395.661 586.682C395.661 587.886 396.376 588.693 397.979 589.068L399.433 589.409C400.314 589.614 400.729 590.034 400.729 590.636C400.729 591.386 399.933 592 398.683 592C397.587 592 396.899 591.528 396.661 590.591L395.388 590.909C395.7 592.392 396.922 593.182 398.706 593.182C400.734 593.182 402.115 592.074 402.115 590.568C402.115 589.352 401.354 588.585 399.797 588.205L398.501 587.886C397.467 587.631 397.001 587.284 397.001 586.614C397.001 585.864 397.797 585.318 398.865 585.318C400.036 585.318 400.518 585.966 400.751 586.568L401.956 586.227Z" fill="white"/>
</g>
</g>
<defs>
<filter id="filter0_d_1820_2385" x="0" y="0" width="505" height="653" filterUnits="userSpaceOnUse" color-interpolation-filters="sRGB">
<feFlood flood-opacity="0" result="BackgroundImageFix"/>
<feColorMatrix in="SourceAlpha" type="matrix" values="0 0 0 0 0 0 0 0 0 0 0 0 0 0 0 0 0 0 127 0" result="hardAlpha"/>
<feOffset dy="10"/>
<feGaussianBlur stdDeviation="6.5"/>
<feComposite in2="hardAlpha" operator="out"/>
<feColorMatrix type="matrix" values="0 0 0 0 0.0666667 0 0 0 0 0.14902 0 0 0 0 0.572549 0 0 0 0.05 0"/>
<feBlend mode="normal" in2="BackgroundImageFix" result="effect1_dropShadow_1820_2385"/>
<feBlend mode="normal" in="SourceGraphic" in2="effect1_dropShadow_1820_2385" result="shape"/>
</filter>
<filter id="filter1_b_1820_2385" x="-30" y="-21" width="565.02" height="426" filterUnits="userSpaceOnUse" color-interpolation-filters="sRGB">
<feFlood flood-opacity="0" result="BackgroundImageFix"/>
<feGaussianBlur in="BackgroundImageFix" stdDeviation="32"/>
<feComposite in2="SourceAlpha" operator="in" result="effect1_backgroundBlur_1820_2385"/>
<feBlend mode="normal" in="SourceGraphic" in2="effect1_backgroundBlur_1820_2385" result="shape"/>
</filter>
<radialGradient id="paint0_radial_1820_2385" cx="0" cy="0" r="1" gradientUnits="userSpaceOnUse" gradientTransform="translate(-128 -56.8718) rotate(47.0947) scale(407.992)">
<stop stop-color="#08328C"/>
<stop offset="1" stop-color="#1964D3"/>
</radialGradient>
<radialGradient id="paint1_radial_1820_2385" cx="0" cy="0" r="1" gradientUnits="userSpaceOnUse" gradientTransform="translate(632.386 473.975) rotate(-136.667) scale(466.234)">
<stop stop-color="#24777D"/>
<stop offset="1" stop-color="#9AE5EB"/>
</radialGradient>
<clipPath id="clip0_1820_2385">
<rect x="13" y="3" width="479" height="627" rx="8" fill="white"/>
</clipPath>
<clipPath id="clip1_1820_2385">
<rect width="479" height="378" fill="white" transform="translate(492 381) rotate(-180)"/>
</clipPath>
</defs>
</svg>
