<svg width="462" height="369" viewBox="0 0 462 369" fill="none" xmlns="http://www.w3.org/2000/svg">
<g filter="url(#filter0_d_1820_2126)">
<rect x="13" y="3" width="436" height="343" rx="8" fill="white" shape-rendering="crispEdges"/>
<path d="M46.5181 58H55.2624V56.2053H48.603V51.9748H54.7294V50.1868H48.603V45.9766H55.1815V44.1818H46.5181V58ZM60.8204 58.2294C62.5342 58.2294 63.499 57.359 63.8836 56.5831H63.9646V58H65.9347V51.1179C65.9347 48.1019 63.5597 47.5014 61.9134 47.5014C60.0377 47.5014 58.3105 48.2571 57.6357 50.1463L59.5317 50.5781C59.8286 49.8427 60.5843 49.1342 61.9404 49.1342C63.2426 49.1342 63.9106 49.8157 63.9106 50.9897V51.0369C63.9106 51.7724 63.1549 51.7589 61.2927 51.9748C59.3293 52.2042 57.3186 52.717 57.3186 55.0717C57.3186 57.1094 58.8502 58.2294 60.8204 58.2294ZM61.259 56.6101C60.1187 56.6101 59.2955 56.0973 59.2955 55.0987C59.2955 54.0192 60.2536 53.6346 61.4209 53.4794C62.0754 53.3917 63.6272 53.2163 63.9173 52.9261V54.2621C63.9173 55.4901 62.939 56.6101 61.259 56.6101ZM68.6218 58H70.6392V51.6712C70.6392 50.315 71.685 49.3366 73.1154 49.3366C73.5337 49.3366 74.006 49.4109 74.168 49.4581V47.5284C73.9656 47.5014 73.5675 47.4812 73.3111 47.4812C72.0966 47.4812 71.0575 48.1694 70.6797 49.2827H70.5717V47.6364H68.6218V58ZM77.9312 51.8466C77.9312 50.1935 78.9433 49.2489 80.3467 49.2489C81.7164 49.2489 82.5463 50.1463 82.5463 51.6509V58H84.5637V51.408C84.5637 48.8441 83.1535 47.5014 81.0349 47.5014C79.4763 47.5014 78.4575 48.2234 77.9784 49.3232H77.8502V47.6364H75.9138V58H77.9312V51.8466ZM87.2693 58H89.2867V47.6364H87.2693V58ZM88.2881 46.0373C88.983 46.0373 89.5633 45.4975 89.5633 44.8363C89.5633 44.1751 88.983 43.6286 88.2881 43.6286C87.5864 43.6286 87.0129 44.1751 87.0129 44.8363C87.0129 45.4975 87.5864 46.0373 88.2881 46.0373ZM94.0181 51.8466C94.0181 50.1935 95.0302 49.2489 96.4336 49.2489C97.8033 49.2489 98.6332 50.1463 98.6332 51.6509V58H100.651V51.408C100.651 48.8441 99.2404 47.5014 97.1218 47.5014C95.5632 47.5014 94.5444 48.2234 94.0653 49.3232H93.9371V47.6364H92.0007V58H94.0181V51.8466ZM107.701 62.1023C110.339 62.1023 112.377 60.8945 112.377 58.2294V47.6364H110.4V49.3164H110.252C109.894 48.6754 109.179 47.5014 107.249 47.5014C104.746 47.5014 102.904 49.4783 102.904 52.7777C102.904 56.0838 104.787 57.8448 107.236 57.8448C109.138 57.8448 109.874 56.772 110.238 56.1108H110.366V58.1484C110.366 59.7745 109.253 60.4762 107.722 60.4762C106.042 60.4762 105.387 59.6328 105.029 59.0391L103.295 59.7543C103.842 61.0227 105.225 62.1023 107.701 62.1023ZM107.681 56.1715C105.88 56.1715 104.942 54.7884 104.942 52.7507C104.942 50.7603 105.859 49.2152 107.681 49.2152C109.442 49.2152 110.387 50.6523 110.387 52.7507C110.387 54.8896 109.422 56.1715 107.681 56.1715ZM122.849 50.1665C122.43 48.554 121.169 47.5014 118.929 47.5014C116.587 47.5014 114.928 48.7362 114.928 50.5714C114.928 52.0423 115.818 53.0206 117.761 53.4524L119.516 53.837C120.514 54.0597 120.98 54.505 120.98 55.1527C120.98 55.9556 120.123 56.5831 118.8 56.5831C117.593 56.5831 116.817 56.0636 116.574 55.0447L114.624 55.3416C114.961 57.1768 116.486 58.2092 118.814 58.2092C121.317 58.2092 123.051 56.88 123.051 55.0043C123.051 53.5401 122.12 52.636 120.217 52.1974L118.571 51.8196C117.431 51.5497 116.938 51.1651 116.945 50.4634C116.938 49.6673 117.802 49.1005 118.949 49.1005C120.204 49.1005 120.784 49.7955 121.02 50.4904L122.849 50.1665Z" fill="#232D42"/>
<path d="M300.773 44.6136H304.432V55H305.841V44.6136H309.5V43.3636H300.773V44.6136ZM312.834 49.75C312.834 48.2273 313.805 47.3636 315.129 47.3636C316.391 47.3636 317.152 48.1591 317.152 49.5455V55H318.493V49.4545C318.493 47.2102 317.3 46.1591 315.516 46.1591C314.141 46.1591 313.357 46.733 312.947 47.6364H312.834V43.3636H311.493V55H312.834V49.75ZM320.946 55H322.287V46.2727H320.946V55ZM321.628 44.8182C322.151 44.8182 322.582 44.4091 322.582 43.9091C322.582 43.4091 322.151 43 321.628 43C321.105 43 320.673 43.4091 320.673 43.9091C320.673 44.4091 321.105 44.8182 321.628 44.8182ZM330.925 48.2273C330.504 46.9886 329.561 46.1591 327.834 46.1591C325.993 46.1591 324.629 47.2045 324.629 48.6818C324.629 49.8864 325.345 50.6932 326.947 51.0682L328.402 51.4091C329.283 51.6136 329.697 52.0341 329.697 52.6364C329.697 53.3864 328.902 54 327.652 54C326.555 54 325.868 53.5284 325.629 52.5909L324.357 52.9091C324.669 54.392 325.891 55.1818 327.675 55.1818C329.703 55.1818 331.084 54.0739 331.084 52.5682C331.084 51.3523 330.322 50.5852 328.766 50.2045L327.47 49.8864C326.436 49.6307 325.97 49.2841 325.97 48.6136C325.97 47.8636 326.766 47.3182 327.834 47.3182C329.004 47.3182 329.487 47.9659 329.72 48.5682L330.925 48.2273ZM339.898 55H341.352L343.92 45.7273H344.011L346.58 55H348.034L351.216 43.3636H349.784L347.352 52.8409H347.239L344.761 43.3636H343.17L340.693 52.8409H340.58L338.148 43.3636H336.716L339.898 55ZM355.636 55.1818C357.409 55.1818 358.705 54.2955 359.114 52.9773L357.818 52.6136C357.477 53.5227 356.688 53.9773 355.636 53.9773C354.062 53.9773 352.977 52.9602 352.915 51.0909H359.25V50.5227C359.25 47.2727 357.318 46.1591 355.5 46.1591C353.136 46.1591 351.568 48.0227 351.568 50.7045C351.568 53.3864 353.114 55.1818 355.636 55.1818ZM352.915 49.9318C353.006 48.5739 353.966 47.3636 355.5 47.3636C356.955 47.3636 357.886 48.4545 357.886 49.9318H352.915ZM364.949 55.1818C366.722 55.1818 368.017 54.2955 368.426 52.9773L367.131 52.6136C366.79 53.5227 366 53.9773 364.949 53.9773C363.375 53.9773 362.29 52.9602 362.227 51.0909H368.562V50.5227C368.562 47.2727 366.631 46.1591 364.812 46.1591C362.449 46.1591 360.881 48.0227 360.881 50.7045C360.881 53.3864 362.426 55.1818 364.949 55.1818ZM362.227 49.9318C362.318 48.5739 363.278 47.3636 364.812 47.3636C366.267 47.3636 367.199 48.4545 367.199 49.9318H362.227ZM370.602 55H371.943V51.733L372.881 50.8636L376.148 55H377.852L373.892 50L377.58 46.2727H375.92L372.102 50.1591H371.943V43.3636H370.602V55Z" fill="#8A92A6"/>
<path d="M406 45.5L399 52.5L392 45.5" stroke="#232D42" stroke-width="1.5" stroke-linecap="round" stroke-linejoin="round"/>
<circle cx="148" cy="211" r="103" stroke="#E9ECEF" stroke-width="4"/>
<path d="M148 108C169.255 108 189.99 114.576 207.36 126.825C224.73 139.075 237.886 156.398 245.022 176.42C252.158 196.441 252.925 218.18 247.218 238.655C241.511 259.13 229.61 277.337 213.146 290.781C196.682 304.225 176.463 312.246 155.26 313.744C134.058 315.242 112.912 310.144 94.721 299.15C76.5304 288.155 62.1867 271.802 53.6571 252.333C45.1276 232.864 42.83 211.234 47.0795 190.408" stroke="#3A57E8" stroke-width="8" stroke-linecap="round"/>
<circle cx="147.976" cy="210.976" r="78.4993" stroke="#E9ECEF" stroke-width="4"/>
<path d="M147.973 132.477C159.356 132.477 170.602 134.952 180.933 139.731C191.264 144.511 200.431 151.479 207.801 160.155C215.17 168.83 220.564 179.004 223.61 189.971C226.656 200.939 227.28 212.438 225.439 223.671C223.598 234.903 219.337 245.601 212.95 255.023C206.563 264.445 198.203 272.365 188.45 278.235C178.698 284.104 167.785 287.782 156.469 289.014C145.154 290.246 133.705 289.002 122.918 285.369" stroke="#85F4FA" stroke-width="8" stroke-linecap="round"/>
<circle cx="294.5" cy="159" r="6.5" fill="#3A57E8"/>
<path d="M326.409 151H327.818V145.795H332.864V144.545H327.818V140.614H333.386V139.364H326.409V151ZM338.186 151.205C339.709 151.205 340.504 150.386 340.777 149.818H340.845V151H342.186V145.25C342.186 142.477 340.072 142.159 338.959 142.159C337.641 142.159 336.141 142.614 335.459 144.205L336.732 144.659C337.027 144.023 337.726 143.341 339.004 143.341C340.237 143.341 340.845 143.994 340.845 145.114V145.159C340.845 145.807 340.186 145.75 338.595 145.955C336.976 146.165 335.209 146.523 335.209 148.523C335.209 150.227 336.527 151.205 338.186 151.205ZM338.391 150C337.322 150 336.55 149.523 336.55 148.591C336.55 147.568 337.482 147.25 338.527 147.114C339.095 147.045 340.618 146.886 340.845 146.614V147.841C340.845 148.932 339.982 150 338.391 150ZM350.815 144.227C350.395 142.989 349.452 142.159 347.724 142.159C345.884 142.159 344.52 143.205 344.52 144.682C344.52 145.886 345.236 146.693 346.838 147.068L348.293 147.409C349.173 147.614 349.588 148.034 349.588 148.636C349.588 149.386 348.793 150 347.543 150C346.446 150 345.759 149.528 345.52 148.591L344.247 148.909C344.56 150.392 345.781 151.182 347.565 151.182C349.594 151.182 350.974 150.074 350.974 148.568C350.974 147.352 350.213 146.585 348.656 146.205L347.361 145.886C346.327 145.631 345.861 145.284 345.861 144.614C345.861 143.864 346.656 143.318 347.724 143.318C348.895 143.318 349.378 143.966 349.611 144.568L350.815 144.227ZM354.334 145.75C354.334 144.227 355.305 143.364 356.629 143.364C357.891 143.364 358.652 144.159 358.652 145.545V151H359.993V145.455C359.993 143.21 358.8 142.159 357.016 142.159C355.641 142.159 354.857 142.733 354.447 143.636H354.334V139.364H352.993V151H354.334V145.75ZM362.446 151H363.787V142.273H362.446V151ZM363.128 140.818C363.651 140.818 364.082 140.409 364.082 139.909C364.082 139.409 363.651 139 363.128 139C362.605 139 362.173 139.409 362.173 139.909C362.173 140.409 362.605 140.818 363.128 140.818ZM369.788 151.182C372.152 151.182 373.743 149.386 373.743 146.682C373.743 143.955 372.152 142.159 369.788 142.159C367.425 142.159 365.834 143.955 365.834 146.682C365.834 149.386 367.425 151.182 369.788 151.182ZM369.788 149.977C367.993 149.977 367.175 148.432 367.175 146.682C367.175 144.932 367.993 143.364 369.788 143.364C371.584 143.364 372.402 144.932 372.402 146.682C372.402 148.432 371.584 149.977 369.788 149.977ZM377.131 145.75C377.131 144.227 378.074 143.364 379.358 143.364C380.602 143.364 381.358 144.176 381.358 145.545V151H382.699V145.455C382.699 143.227 381.511 142.159 379.744 142.159C378.426 142.159 377.608 142.75 377.199 143.636H377.085V142.273H375.79V151H377.131V145.75Z" fill="#8A92A6"/>
<path d="M326.119 179H333.778V177.494H328.54V177.409L330.852 174.989C332.983 172.835 333.591 171.807 333.591 170.506C333.591 168.636 332.068 167.205 329.875 167.205C327.699 167.205 326.108 168.614 326.108 170.739H327.784C327.778 169.489 328.585 168.67 329.841 168.67C331.023 168.67 331.92 169.398 331.92 170.557C331.92 171.585 331.307 172.324 330.057 173.648L326.119 177.727V179ZM339.773 179.159C342.114 179.159 343.784 177.506 343.778 175.239C343.784 172.989 342.216 171.352 340.097 171.352C339.233 171.352 338.432 171.682 337.977 172.125H337.909L338.278 168.869H343.216V167.364H336.818L336.165 173.227L337.773 173.466C338.21 173.074 338.994 172.807 339.699 172.807C341.08 172.818 342.08 173.852 342.08 175.273C342.08 176.67 341.108 177.682 339.773 177.682C338.648 177.682 337.756 176.966 337.665 175.966H335.96C336.028 177.818 337.636 179.159 339.773 179.159ZM350.268 167.364H348.558L345.655 169.261V170.943L348.439 169.125H348.507V179H350.268V167.364ZM353.575 179H355.331V175.381L356.706 173.801L360.467 179H362.581L357.871 172.602L362.564 167.364H360.354L355.473 172.92H355.331V167.364H353.575V179Z" fill="#232D42"/>
<circle cx="294.5" cy="263" r="6.5" fill="#85F4FA"/>
<path d="M326.886 255L328.057 251.705H332.761L333.932 255H335.409L331.136 243.364H329.682L325.409 255H326.886ZM328.5 250.455L330.364 245.205H330.455L332.318 250.455H328.5ZM340.585 255.182C342.517 255.182 343.79 254 344.017 252.455H342.676C342.426 253.409 341.631 253.977 340.585 253.977C338.994 253.977 337.972 252.659 337.972 250.636C337.972 248.659 339.017 247.364 340.585 247.364C341.767 247.364 342.472 248.091 342.676 248.886H344.017C343.79 247.25 342.403 246.159 340.562 246.159C338.199 246.159 336.631 248.023 336.631 250.682C336.631 253.295 338.131 255.182 340.585 255.182ZM349.523 255.182C351.455 255.182 352.727 254 352.955 252.455H351.614C351.364 253.409 350.568 253.977 349.523 253.977C347.932 253.977 346.909 252.659 346.909 250.636C346.909 248.659 347.955 247.364 349.523 247.364C350.705 247.364 351.409 248.091 351.614 248.886H352.955C352.727 247.25 351.341 246.159 349.5 246.159C347.136 246.159 345.568 248.023 345.568 250.682C345.568 253.295 347.068 255.182 349.523 255.182ZM358.574 255.182C360.347 255.182 361.642 254.295 362.051 252.977L360.756 252.614C360.415 253.523 359.625 253.977 358.574 253.977C357 253.977 355.915 252.96 355.852 251.091H362.188V250.523C362.188 247.273 360.256 246.159 358.438 246.159C356.074 246.159 354.506 248.023 354.506 250.705C354.506 253.386 356.051 255.182 358.574 255.182ZM355.852 249.932C355.943 248.574 356.903 247.364 358.438 247.364C359.892 247.364 360.824 248.455 360.824 249.932H355.852ZM370.409 248.227C369.989 246.989 369.045 246.159 367.318 246.159C365.477 246.159 364.114 247.205 364.114 248.682C364.114 249.886 364.83 250.693 366.432 251.068L367.886 251.409C368.767 251.614 369.182 252.034 369.182 252.636C369.182 253.386 368.386 254 367.136 254C366.04 254 365.352 253.528 365.114 252.591L363.841 252.909C364.153 254.392 365.375 255.182 367.159 255.182C369.188 255.182 370.568 254.074 370.568 252.568C370.568 251.352 369.807 250.585 368.25 250.205L366.955 249.886C365.92 249.631 365.455 249.284 365.455 248.614C365.455 247.864 366.25 247.318 367.318 247.318C368.489 247.318 368.972 247.966 369.205 248.568L370.409 248.227ZM378.768 248.227C378.348 246.989 377.405 246.159 375.678 246.159C373.837 246.159 372.473 247.205 372.473 248.682C372.473 249.886 373.189 250.693 374.791 251.068L376.246 251.409C377.126 251.614 377.541 252.034 377.541 252.636C377.541 253.386 376.746 254 375.496 254C374.399 254 373.712 253.528 373.473 252.591L372.2 252.909C372.513 254.392 373.734 255.182 375.518 255.182C377.547 255.182 378.928 254.074 378.928 252.568C378.928 251.352 378.166 250.585 376.609 250.205L375.314 249.886C374.28 249.631 373.814 249.284 373.814 248.614C373.814 247.864 374.609 247.318 375.678 247.318C376.848 247.318 377.331 247.966 377.564 248.568L378.768 248.227ZM384.491 255.182C386.855 255.182 388.446 253.386 388.446 250.682C388.446 247.955 386.855 246.159 384.491 246.159C382.128 246.159 380.537 247.955 380.537 250.682C380.537 253.386 382.128 255.182 384.491 255.182ZM384.491 253.977C382.696 253.977 381.878 252.432 381.878 250.682C381.878 248.932 382.696 247.364 384.491 247.364C386.287 247.364 387.105 248.932 387.105 250.682C387.105 252.432 386.287 253.977 384.491 253.977ZM390.493 255H391.834V249.477C391.834 248.295 392.766 247.432 394.038 247.432C394.396 247.432 394.766 247.5 394.857 247.523V246.159C394.703 246.148 394.351 246.136 394.152 246.136C393.107 246.136 392.197 246.727 391.879 247.591H391.788V246.273H390.493V255ZM396.446 255H397.787V246.273H396.446V255ZM397.128 244.818C397.651 244.818 398.082 244.409 398.082 243.909C398.082 243.409 397.651 243 397.128 243C396.605 243 396.173 243.409 396.173 243.909C396.173 244.409 396.605 244.818 397.128 244.818ZM403.902 255.182C405.675 255.182 406.97 254.295 407.379 252.977L406.084 252.614C405.743 253.523 404.953 253.977 403.902 253.977C402.328 253.977 401.243 252.96 401.18 251.091H407.516V250.523C407.516 247.273 405.584 246.159 403.766 246.159C401.402 246.159 399.834 248.023 399.834 250.705C399.834 253.386 401.379 255.182 403.902 255.182ZM401.18 249.932C401.271 248.574 402.232 247.364 403.766 247.364C405.22 247.364 406.152 248.455 406.152 249.932H401.18ZM415.737 248.227C415.317 246.989 414.374 246.159 412.646 246.159C410.805 246.159 409.442 247.205 409.442 248.682C409.442 249.886 410.158 250.693 411.76 251.068L413.214 251.409C414.095 251.614 414.51 252.034 414.51 252.636C414.51 253.386 413.714 254 412.464 254C411.368 254 410.68 253.528 410.442 252.591L409.169 252.909C409.482 254.392 410.703 255.182 412.487 255.182C414.516 255.182 415.896 254.074 415.896 252.568C415.896 251.352 415.135 250.585 413.578 250.205L412.283 249.886C411.249 249.631 410.783 249.284 410.783 248.614C410.783 247.864 411.578 247.318 412.646 247.318C413.817 247.318 414.3 247.966 414.533 248.568L415.737 248.227Z" fill="#8A92A6"/>
<path d="M330.534 271.364H328.824L325.92 273.261V274.943L328.705 273.125H328.773V283H330.534V271.364ZM334.074 283H335.909L340.972 272.92V271.364H333.278V272.869H339.153V272.955L334.074 283ZM346.76 283.159C349.192 283.182 350.805 281.432 350.8 279.199C350.805 276.972 349.186 275.375 347.169 275.375C345.942 275.375 344.879 275.966 344.283 276.949H344.197C344.203 274.307 345.203 272.739 346.908 272.739C348.027 272.739 348.732 273.42 348.97 274.386H350.703C350.436 272.545 348.987 271.205 346.908 271.205C344.203 271.205 342.516 273.528 342.516 277.574C342.51 281.858 344.692 283.142 346.76 283.159ZM346.754 281.682C345.402 281.682 344.413 280.545 344.413 279.239C344.419 277.938 345.453 276.801 346.794 276.801C348.124 276.801 349.101 277.875 349.095 279.222C349.101 280.597 348.084 281.682 346.754 281.682ZM353.028 283H354.784V279.381L356.159 277.801L359.92 283H362.034L357.324 276.602L362.017 271.364H359.807L354.926 276.92H354.784V271.364H353.028V283Z" fill="#232D42"/>
</g>
<defs>
<filter id="filter0_d_1820_2126" x="0" y="0" width="462" height="369" filterUnits="userSpaceOnUse" color-interpolation-filters="sRGB">
<feFlood flood-opacity="0" result="BackgroundImageFix"/>
<feColorMatrix in="SourceAlpha" type="matrix" values="0 0 0 0 0 0 0 0 0 0 0 0 0 0 0 0 0 0 127 0" result="hardAlpha"/>
<feOffset dy="10"/>
<feGaussianBlur stdDeviation="6.5"/>
<feComposite in2="hardAlpha" operator="out"/>
<feColorMatrix type="matrix" values="0 0 0 0 0.0666667 0 0 0 0 0.14902 0 0 0 0 0.572549 0 0 0 0.05 0"/>
<feBlend mode="normal" in2="BackgroundImageFix" result="effect1_dropShadow_1820_2126"/>
<feBlend mode="normal" in="SourceGraphic" in2="effect1_dropShadow_1820_2126" result="shape"/>
</filter>
</defs>
</svg>
