<svg width="1090" height="473" viewBox="0 0 1090 473" fill="none" xmlns="http://www.w3.org/2000/svg">
<g filter="url(#filter0_d_1820_2454)">
<rect x="13" y="3" width="1064" height="447" rx="8" fill="white" shape-rendering="crispEdges"/>
<path d="M42.4922 51.7273H43.7607L43.7674 50.2092C46.6214 50 48.2543 48.3672 48.2543 46.1811C48.2543 43.6914 46.0344 42.7266 44.2802 42.2947L43.7876 42.1665L43.8011 37.8349C45.0629 38.0036 45.9265 38.7053 46.0547 39.8118H48.0653C48.0114 37.7539 46.3111 36.2156 43.8079 36.0131L43.8146 34.4545H42.5462L42.5394 36.0266C40.1172 36.2695 38.3427 37.7809 38.3427 39.9602C38.3427 41.8832 39.7191 43.0099 41.9389 43.6104L42.5192 43.7656L42.5057 48.3604C41.19 48.1985 40.1712 47.4833 40.0632 46.1811H37.9716C38.0998 48.5089 39.7798 50.0067 42.4989 50.2092L42.4922 51.7273ZM43.7741 48.3604L43.7876 44.1165C45.1573 44.4943 46.1896 44.9936 46.1896 46.1609C46.1896 47.3416 45.2045 48.1715 43.7741 48.3604ZM42.5259 41.8292C41.5206 41.5323 40.4141 40.9993 40.4208 39.8388C40.4208 38.8267 41.2237 38.0373 42.5327 37.8416L42.5259 41.8292ZM55.2258 50.1889C58.1001 50.1889 60.1309 48.5561 60.1444 46.3161C60.1309 44.5753 58.9097 43.1112 57.3646 42.8345V42.7536C58.7073 42.4297 59.6182 41.168 59.6317 39.6768C59.6182 37.565 57.7559 35.9929 55.2258 35.9929C52.6686 35.9929 50.8064 37.565 50.8199 39.6768C50.8064 41.1612 51.7172 42.4297 53.0869 42.7536V42.8345C51.5148 43.1112 50.2936 44.5753 50.3071 46.3161C50.2936 48.5561 52.3245 50.1889 55.2258 50.1889ZM55.2258 48.4819C53.4985 48.4819 52.4055 47.5643 52.4189 46.1811C52.4055 44.744 53.593 43.7184 55.2258 43.7184C56.8316 43.7184 58.0191 44.744 58.0326 46.1811C58.0191 47.5643 56.9328 48.4819 55.2258 48.4819ZM55.2258 42.0518C53.8291 42.0518 52.8373 41.168 52.8508 39.8523C52.8373 38.5568 53.7954 37.6999 55.2258 37.6999C56.6292 37.6999 57.5873 38.5568 57.6008 39.8523C57.5873 41.168 56.6022 42.0518 55.2258 42.0518ZM67.1227 50.1889C69.9025 50.1889 71.8862 48.2255 71.8794 45.5334C71.8862 42.8615 70.024 40.9183 67.5073 40.9183C66.4817 40.9183 65.5304 41.3097 64.9906 41.8359H64.9096L65.3482 37.9698H71.2115V36.1818H63.6142L62.8382 43.1449L64.7477 43.4283C65.2672 42.9627 66.1983 42.6456 67.035 42.6456C68.6745 42.6591 69.862 43.8871 69.862 45.5739C69.862 47.2337 68.7083 48.4347 67.1227 48.4347C65.7868 48.4347 64.7275 47.5845 64.6195 46.397H62.5953C62.6763 48.5966 64.5858 50.1889 67.1227 50.1889ZM78.9049 50.1889C81.6847 50.1889 83.6684 48.2255 83.6617 45.5334C83.6684 42.8615 81.8062 40.9183 79.2895 40.9183C78.2639 40.9183 77.3126 41.3097 76.7728 41.8359H76.6919L77.1304 37.9698H82.9937V36.1818H75.3964L74.6205 43.1449L76.5299 43.4283C77.0494 42.9627 77.9806 42.6456 78.8172 42.6456C80.4568 42.6591 81.6443 43.8871 81.6443 45.5739C81.6443 47.2337 80.4905 48.4347 78.9049 48.4347C77.569 48.4347 76.5097 47.5845 76.4017 46.397H74.3776C74.4585 48.5966 76.368 50.1889 78.9049 50.1889ZM86.9998 50.1282C87.7353 50.1282 88.3493 49.5277 88.3493 48.7788C88.3493 48.0433 87.7353 47.4361 86.9998 47.4361C86.2576 47.4361 85.6504 48.0433 85.6504 48.7788C85.6504 49.5277 86.2576 50.1282 86.9998 50.1282ZM95.2297 50.1889C98.104 50.1889 100.135 48.5561 100.148 46.3161C100.135 44.5753 98.9136 43.1112 97.3685 42.8345V42.7536C98.7112 42.4297 99.6221 41.168 99.6356 39.6768C99.6221 37.565 97.7599 35.9929 95.2297 35.9929C92.6725 35.9929 90.8103 37.565 90.8238 39.6768C90.8103 41.1612 91.7211 42.4297 93.0908 42.7536V42.8345C91.5187 43.1112 90.2975 44.5753 90.311 46.3161C90.2975 48.5561 92.3284 50.1889 95.2297 50.1889ZM95.2297 48.4819C93.5024 48.4819 92.4094 47.5643 92.4229 46.1811C92.4094 44.744 93.5969 43.7184 95.2297 43.7184C96.8355 43.7184 98.023 44.744 98.0365 46.1811C98.023 47.5643 96.9367 48.4819 95.2297 48.4819ZM95.2297 42.0518C93.833 42.0518 92.8412 41.168 92.8547 39.8523C92.8412 38.5568 93.7993 37.6999 95.2297 37.6999C96.6331 37.6999 97.5912 38.5568 97.6047 39.8523C97.5912 41.168 96.6061 42.0518 95.2297 42.0518ZM102.754 50H104.839V45.7021L106.472 43.8263L110.939 50H113.449L107.855 42.4027L113.428 36.1818H110.804L105.008 42.7805H104.839V36.1818H102.754V50Z" fill="#232D42"/>
<path d="M46.3636 72H47.8182C47.3864 69.75 45.5 68.2045 43.0455 68.2045C40.0625 68.2045 37.9545 70.5 37.9545 74.1818C37.9545 77.8636 40.0455 80.1591 43.1364 80.1591C45.9091 80.1591 47.8864 78.3125 47.8864 75.4318V74.1818H43.4545V75.4318H46.5227C46.483 77.5227 45.108 78.8409 43.1364 78.8409C40.9773 78.8409 39.3182 77.2045 39.3182 74.1818C39.3182 71.1591 40.9773 69.5227 43.0455 69.5227C44.7273 69.5227 45.8693 70.4716 46.3636 72ZM50.1179 80H51.4588V74.4773C51.4588 73.2955 52.3906 72.4318 53.6634 72.4318C54.0213 72.4318 54.3906 72.5 54.4815 72.5227V71.1591C54.3281 71.1477 53.9759 71.1364 53.777 71.1364C52.7315 71.1364 51.8224 71.7273 51.5043 72.5909H51.4134V71.2727H50.1179V80ZM59.3509 80.1818C61.7145 80.1818 63.3054 78.3864 63.3054 75.6818C63.3054 72.9545 61.7145 71.1591 59.3509 71.1591C56.9872 71.1591 55.3963 72.9545 55.3963 75.6818C55.3963 78.3864 56.9872 80.1818 59.3509 80.1818ZM59.3509 78.9773C57.5554 78.9773 56.7372 77.4318 56.7372 75.6818C56.7372 73.9318 57.5554 72.3636 59.3509 72.3636C61.1463 72.3636 61.9645 73.9318 61.9645 75.6818C61.9645 77.4318 61.1463 78.9773 59.3509 78.9773ZM71.5341 73.2273C71.1136 71.9886 70.1705 71.1591 68.4432 71.1591C66.6023 71.1591 65.2386 72.2045 65.2386 73.6818C65.2386 74.8864 65.9545 75.6932 67.5568 76.0682L69.0114 76.4091C69.892 76.6136 70.3068 77.0341 70.3068 77.6364C70.3068 78.3864 69.5114 79 68.2614 79C67.1648 79 66.4773 78.5284 66.2386 77.5909L64.9659 77.9091C65.2784 79.392 66.5 80.1818 68.2841 80.1818C70.3125 80.1818 71.6932 79.0739 71.6932 77.5682C71.6932 76.3523 70.9318 75.5852 69.375 75.2045L68.0795 74.8864C67.0455 74.6307 66.5795 74.2841 66.5795 73.6136C66.5795 72.8636 67.375 72.3182 68.4432 72.3182C69.6136 72.3182 70.0966 72.9659 70.3295 73.5682L71.5341 73.2273ZM79.8935 73.2273C79.473 71.9886 78.5298 71.1591 76.8026 71.1591C74.9616 71.1591 73.598 72.2045 73.598 73.6818C73.598 74.8864 74.3139 75.6932 75.9162 76.0682L77.3707 76.4091C78.2514 76.6136 78.6662 77.0341 78.6662 77.6364C78.6662 78.3864 77.8707 79 76.6207 79C75.5241 79 74.8366 78.5284 74.598 77.5909L73.3253 77.9091C73.6378 79.392 74.8594 80.1818 76.6435 80.1818C78.6719 80.1818 80.0526 79.0739 80.0526 77.5682C80.0526 76.3523 79.2912 75.5852 77.7344 75.2045L76.4389 74.8864C75.4048 74.6307 74.9389 74.2841 74.9389 73.6136C74.9389 72.8636 75.7344 72.3182 76.8026 72.3182C77.973 72.3182 78.456 72.9659 78.6889 73.5682L79.8935 73.2273ZM93.1165 71.2727H94.4801C94.4176 69.517 92.7983 68.2045 90.5483 68.2045C88.321 68.2045 86.571 69.5 86.571 71.4545C86.571 73.0227 87.7074 73.9545 89.5256 74.4773L90.9574 74.8864C92.1847 75.2273 93.2756 75.6591 93.2756 76.8182C93.2756 78.0909 92.0483 78.9318 90.4347 78.9318C89.0483 78.9318 87.821 78.3182 87.7074 77H86.2528C86.3892 78.9091 87.9347 80.2045 90.4347 80.2045C93.1165 80.2045 94.6392 78.7273 94.6392 76.8409C94.6392 74.6591 92.571 73.9545 91.3665 73.6364L90.1847 73.3182C89.321 73.0909 87.9347 72.6364 87.9347 71.3864C87.9347 70.2727 88.9574 69.4545 90.5028 69.4545C91.9119 69.4545 92.9801 70.125 93.1165 71.2727ZM99.3423 80.2045C100.865 80.2045 101.661 79.3864 101.933 78.8182H102.001V80H103.342V74.25C103.342 71.4773 101.229 71.1591 100.115 71.1591C98.7969 71.1591 97.2969 71.6136 96.6151 73.2045L97.8878 73.6591C98.1832 73.0227 98.8821 72.3409 100.161 72.3409C101.393 72.3409 102.001 72.9943 102.001 74.1136V74.1591C102.001 74.8068 101.342 74.75 99.7514 74.9545C98.1321 75.1648 96.3651 75.5227 96.3651 77.5227C96.3651 79.2273 97.6832 80.2045 99.3423 80.2045ZM99.5469 79C98.4787 79 97.706 78.5227 97.706 77.5909C97.706 76.5682 98.6378 76.25 99.6832 76.1136C100.251 76.0455 101.774 75.8864 102.001 75.6136V76.8409C102.001 77.9318 101.138 79 99.5469 79ZM107.131 68.3636H105.79V80H107.131V68.3636ZM113.246 80.1818C115.018 80.1818 116.314 79.2955 116.723 77.9773L115.428 77.6136C115.087 78.5227 114.297 78.9773 113.246 78.9773C111.672 78.9773 110.587 77.9602 110.524 76.0909H116.859V75.5227C116.859 72.2727 114.928 71.1591 113.109 71.1591C110.746 71.1591 109.178 73.0227 109.178 75.7045C109.178 78.3864 110.723 80.1818 113.246 80.1818ZM110.524 74.9318C110.615 73.5739 111.575 72.3636 113.109 72.3636C114.564 72.3636 115.496 73.4545 115.496 74.9318H110.524ZM125.081 73.2273C124.661 71.9886 123.717 71.1591 121.99 71.1591C120.149 71.1591 118.786 72.2045 118.786 73.6818C118.786 74.8864 119.501 75.6932 121.104 76.0682L122.558 76.4091C123.439 76.6136 123.854 77.0341 123.854 77.6364C123.854 78.3864 123.058 79 121.808 79C120.712 79 120.024 78.5284 119.786 77.5909L118.513 77.9091C118.825 79.392 120.047 80.1818 121.831 80.1818C123.859 80.1818 125.24 79.0739 125.24 77.5682C125.24 76.3523 124.479 75.5852 122.922 75.2045L121.626 74.8864C120.592 74.6307 120.126 74.2841 120.126 73.6136C120.126 72.8636 120.922 72.3182 121.99 72.3182C123.161 72.3182 123.643 72.9659 123.876 73.5682L125.081 73.2273Z" fill="#8A92A6"/>
<circle cx="470.5" cy="57.5" r="6.5" fill="#3A57E8"/>
<path d="M492.773 54.7727H494.136C494.074 53.017 492.455 51.7045 490.205 51.7045C487.977 51.7045 486.227 53 486.227 54.9545C486.227 56.5227 487.364 57.4545 489.182 57.9773L490.614 58.3864C491.841 58.7273 492.932 59.1591 492.932 60.3182C492.932 61.5909 491.705 62.4318 490.091 62.4318C488.705 62.4318 487.477 61.8182 487.364 60.5H485.909C486.045 62.4091 487.591 63.7045 490.091 63.7045C492.773 63.7045 494.295 62.2273 494.295 60.3409C494.295 58.1591 492.227 57.4545 491.023 57.1364L489.841 56.8182C488.977 56.5909 487.591 56.1364 487.591 54.8864C487.591 53.7727 488.614 52.9545 490.159 52.9545C491.568 52.9545 492.636 53.625 492.773 54.7727ZM498.999 63.7045C500.521 63.7045 501.317 62.8864 501.589 62.3182H501.658V63.5H502.999V57.75C502.999 54.9773 500.885 54.6591 499.771 54.6591C498.453 54.6591 496.953 55.1136 496.271 56.7045L497.544 57.1591C497.839 56.5227 498.538 55.8409 499.817 55.8409C501.05 55.8409 501.658 56.4943 501.658 57.6136V57.6591C501.658 58.3068 500.999 58.25 499.408 58.4545C497.788 58.6648 496.021 59.0227 496.021 61.0227C496.021 62.7273 497.339 63.7045 498.999 63.7045ZM499.203 62.5C498.135 62.5 497.362 62.0227 497.362 61.0909C497.362 60.0682 498.294 59.75 499.339 59.6136C499.908 59.5455 501.43 59.3864 501.658 59.1136V60.3409C501.658 61.4318 500.794 62.5 499.203 62.5ZM506.787 51.8636H505.446V63.5H506.787V51.8636ZM512.902 63.6818C514.675 63.6818 515.97 62.7955 516.379 61.4773L515.084 61.1136C514.743 62.0227 513.953 62.4773 512.902 62.4773C511.328 62.4773 510.243 61.4602 510.18 59.5909H516.516V59.0227C516.516 55.7727 514.584 54.6591 512.766 54.6591C510.402 54.6591 508.834 56.5227 508.834 59.2045C508.834 61.8864 510.379 63.6818 512.902 63.6818ZM510.18 58.4318C510.271 57.0739 511.232 55.8636 512.766 55.8636C514.22 55.8636 515.152 56.9545 515.152 58.4318H510.18ZM524.737 56.7273C524.317 55.4886 523.374 54.6591 521.646 54.6591C519.805 54.6591 518.442 55.7045 518.442 57.1818C518.442 58.3864 519.158 59.1932 520.76 59.5682L522.214 59.9091C523.095 60.1136 523.51 60.5341 523.51 61.1364C523.51 61.8864 522.714 62.5 521.464 62.5C520.368 62.5 519.68 62.0284 519.442 61.0909L518.169 61.4091C518.482 62.892 519.703 63.6818 521.487 63.6818C523.516 63.6818 524.896 62.5739 524.896 61.0682C524.896 59.8523 524.135 59.0852 522.578 58.7045L521.283 58.3864C520.249 58.1307 519.783 57.7841 519.783 57.1136C519.783 56.3636 520.578 55.8182 521.646 55.8182C522.817 55.8182 523.3 56.4659 523.533 57.0682L524.737 56.7273Z" fill="#8A92A6"/>
<circle cx="556.5" cy="57.5" r="6.5" fill="#85F4FA"/>
<path d="M581.773 55.5C581.341 53.1136 579.432 51.7045 577.091 51.7045C574.114 51.7045 571.955 54 571.955 57.6818C571.955 61.3636 574.114 63.6591 577.091 63.6591C579.432 63.6591 581.341 62.25 581.773 59.8636H580.364C580.023 61.4773 578.636 62.3409 577.091 62.3409C574.977 62.3409 573.318 60.7045 573.318 57.6818C573.318 54.6591 574.977 53.0227 577.091 53.0227C578.636 53.0227 580.023 53.8864 580.364 55.5H581.773ZM587.413 63.6818C589.777 63.6818 591.368 61.8864 591.368 59.1818C591.368 56.4545 589.777 54.6591 587.413 54.6591C585.05 54.6591 583.459 56.4545 583.459 59.1818C583.459 61.8864 585.05 63.6818 587.413 63.6818ZM587.413 62.4773C585.618 62.4773 584.8 60.9318 584.8 59.1818C584.8 57.4318 585.618 55.8636 587.413 55.8636C589.209 55.8636 590.027 57.4318 590.027 59.1818C590.027 60.9318 589.209 62.4773 587.413 62.4773ZM599.597 56.7273C599.176 55.4886 598.233 54.6591 596.506 54.6591C594.665 54.6591 593.301 55.7045 593.301 57.1818C593.301 58.3864 594.017 59.1932 595.619 59.5682L597.074 59.9091C597.955 60.1136 598.369 60.5341 598.369 61.1364C598.369 61.8864 597.574 62.5 596.324 62.5C595.227 62.5 594.54 62.0284 594.301 61.0909L593.028 61.4091C593.341 62.892 594.562 63.6818 596.347 63.6818C598.375 63.6818 599.756 62.5739 599.756 61.0682C599.756 59.8523 598.994 59.0852 597.438 58.7045L596.142 58.3864C595.108 58.1307 594.642 57.7841 594.642 57.1136C594.642 56.3636 595.438 55.8182 596.506 55.8182C597.676 55.8182 598.159 56.4659 598.392 57.0682L599.597 56.7273ZM605.57 54.7727H603.706V52.6818H602.365V54.7727H601.047V55.9091H602.365V61.3636C602.365 62.8864 603.592 63.6136 604.729 63.6136C605.229 63.6136 605.547 63.5227 605.729 63.4545L605.456 62.25C605.342 62.2727 605.161 62.3182 604.865 62.3182C604.274 62.3182 603.706 62.1364 603.706 61V55.9091H605.57V54.7727Z" fill="#8A92A6"/>
<path d="M944.773 53.1136H948.432V63.5H949.841V53.1136H953.5V51.8636H944.773V53.1136ZM956.834 58.25C956.834 56.7273 957.805 55.8636 959.129 55.8636C960.391 55.8636 961.152 56.6591 961.152 58.0455V63.5H962.493V57.9545C962.493 55.7102 961.3 54.6591 959.516 54.6591C958.141 54.6591 957.357 55.233 956.947 56.1364H956.834V51.8636H955.493V63.5H956.834V58.25ZM964.946 63.5H966.287V54.7727H964.946V63.5ZM965.628 53.3182C966.151 53.3182 966.582 52.9091 966.582 52.4091C966.582 51.9091 966.151 51.5 965.628 51.5C965.105 51.5 964.673 51.9091 964.673 52.4091C964.673 52.9091 965.105 53.3182 965.628 53.3182ZM974.925 56.7273C974.504 55.4886 973.561 54.6591 971.834 54.6591C969.993 54.6591 968.629 55.7045 968.629 57.1818C968.629 58.3864 969.345 59.1932 970.947 59.5682L972.402 59.9091C973.283 60.1136 973.697 60.5341 973.697 61.1364C973.697 61.8864 972.902 62.5 971.652 62.5C970.555 62.5 969.868 62.0284 969.629 61.0909L968.357 61.4091C968.669 62.892 969.891 63.6818 971.675 63.6818C973.703 63.6818 975.084 62.5739 975.084 61.0682C975.084 59.8523 974.322 59.0852 972.766 58.7045L971.47 58.3864C970.436 58.1307 969.97 57.7841 969.97 57.1136C969.97 56.3636 970.766 55.8182 971.834 55.8182C973.004 55.8182 973.487 56.4659 973.72 57.0682L974.925 56.7273ZM983.898 63.5H985.352L987.92 54.2273H988.011L990.58 63.5H992.034L995.216 51.8636H993.784L991.352 61.3409H991.239L988.761 51.8636H987.17L984.693 61.3409H984.58L982.148 51.8636H980.716L983.898 63.5ZM999.636 63.6818C1001.41 63.6818 1002.7 62.7955 1003.11 61.4773L1001.82 61.1136C1001.48 62.0227 1000.69 62.4773 999.636 62.4773C998.062 62.4773 996.977 61.4602 996.915 59.5909H1003.25V59.0227C1003.25 55.7727 1001.32 54.6591 999.5 54.6591C997.136 54.6591 995.568 56.5227 995.568 59.2045C995.568 61.8864 997.114 63.6818 999.636 63.6818ZM996.915 58.4318C997.006 57.0739 997.966 55.8636 999.5 55.8636C1000.95 55.8636 1001.89 56.9545 1001.89 58.4318H996.915ZM1008.95 63.6818C1010.72 63.6818 1012.02 62.7955 1012.43 61.4773L1011.13 61.1136C1010.79 62.0227 1010 62.4773 1008.95 62.4773C1007.38 62.4773 1006.29 61.4602 1006.23 59.5909H1012.56V59.0227C1012.56 55.7727 1010.63 54.6591 1008.81 54.6591C1006.45 54.6591 1004.88 56.5227 1004.88 59.2045C1004.88 61.8864 1006.43 63.6818 1008.95 63.6818ZM1006.23 58.4318C1006.32 57.0739 1007.28 55.8636 1008.81 55.8636C1010.27 55.8636 1011.2 56.9545 1011.2 58.4318H1006.23ZM1014.6 63.5H1015.94V60.233L1016.88 59.3636L1020.15 63.5H1021.85L1017.89 58.5L1021.58 54.7727H1019.92L1016.1 58.6591H1015.94V51.8636H1014.6V63.5Z" fill="#8A92A6"/>
<path d="M1050 54L1043 61L1036 54" stroke="#232D42" stroke-width="1.5" stroke-linecap="round" stroke-linejoin="round"/>
<path d="M41.9091 120.205C39.5455 120.176 38.0227 121.955 38.0227 124.091C38.0227 126.341 39.6818 127.955 41.6818 127.955C42.8864 127.955 43.9091 127.364 44.5455 126.409H44.6364C44.6364 129.273 43.5227 130.909 41.7273 130.909C40.5 130.909 39.75 130.136 39.5 129.068H38.1136C38.3864 130.909 39.7727 132.159 41.7273 132.159C44.3409 132.159 45.9545 129.841 45.9545 125.705C45.9545 121.432 43.8182 120.227 41.9091 120.205ZM41.9091 121.455C43.3636 121.455 44.4318 122.705 44.4318 124.068C44.4318 125.455 43.2955 126.705 41.8636 126.705C40.4318 126.705 39.3864 125.545 39.3864 124.091C39.3864 122.636 40.4773 121.455 41.9091 121.455ZM51.8935 120.205C49.5298 120.176 48.0071 121.955 48.0071 124.091C48.0071 126.341 49.6662 127.955 51.6662 127.955C52.8707 127.955 53.8935 127.364 54.5298 126.409H54.6207C54.6207 129.273 53.5071 130.909 51.7116 130.909C50.4844 130.909 49.7344 130.136 49.4844 129.068H48.098C48.3707 130.909 49.7571 132.159 51.7116 132.159C54.3253 132.159 55.9389 129.841 55.9389 125.705C55.9389 121.432 53.8026 120.227 51.8935 120.205ZM51.8935 121.455C53.348 121.455 54.4162 122.705 54.4162 124.068C54.4162 125.455 53.2798 126.705 51.848 126.705C50.4162 126.705 49.3707 125.545 49.3707 124.091C49.3707 122.636 50.4616 121.455 51.8935 121.455Z" fill="#8A92A6"/>
<path d="M41.9091 172.205C39.5455 172.176 38.0227 173.955 38.0227 176.091C38.0227 178.341 39.6818 179.955 41.6818 179.955C42.8864 179.955 43.9091 179.364 44.5455 178.409H44.6364C44.6364 181.273 43.5227 182.909 41.7273 182.909C40.5 182.909 39.75 182.136 39.5 181.068H38.1136C38.3864 182.909 39.7727 184.159 41.7273 184.159C44.3409 184.159 45.9545 181.841 45.9545 177.705C45.9545 173.432 43.8182 172.227 41.9091 172.205ZM41.9091 173.455C43.3636 173.455 44.4318 174.705 44.4318 176.068C44.4318 177.455 43.2955 178.705 41.8636 178.705C40.4318 178.705 39.3864 177.545 39.3864 176.091C39.3864 174.636 40.4773 173.455 41.9091 173.455ZM51.9844 184.159C54.5526 184.159 56.0298 181.983 56.0298 178.182C56.0298 174.409 54.5298 172.205 51.9844 172.205C49.4389 172.205 47.9389 174.409 47.9389 178.182C47.9389 181.983 49.4162 184.159 51.9844 184.159ZM51.9844 182.909C50.2912 182.909 49.3026 181.21 49.3026 178.182C49.3026 175.159 50.3026 173.432 51.9844 173.432C53.6662 173.432 54.6662 175.159 54.6662 178.182C54.6662 181.21 53.6776 182.909 51.9844 182.909Z" fill="#8A92A6"/>
<path d="M41.9318 236.159C44.2557 236.159 45.875 234.801 45.8864 232.909C45.875 231.438 44.892 230.188 43.6364 229.955V229.886C44.7273 229.602 45.4432 228.534 45.4545 227.295C45.4432 225.523 43.9545 224.205 41.9318 224.205C39.8864 224.205 38.3977 225.523 38.4091 227.295C38.3977 228.534 39.1136 229.602 40.2273 229.886V229.955C38.9489 230.188 37.9659 231.438 37.9773 232.909C37.9659 234.801 39.5852 236.159 41.9318 236.159ZM41.9318 234.909C40.3352 234.909 39.3523 234.091 39.3636 232.841C39.3523 231.528 40.4375 230.591 41.9318 230.591C43.4034 230.591 44.4886 231.528 44.5 232.841C44.4886 234.091 43.5057 234.909 41.9318 234.909ZM41.9318 229.386C40.6591 229.386 39.7614 228.591 39.7727 227.386C39.7614 226.205 40.625 225.432 41.9318 225.432C43.2159 225.432 44.0795 226.205 44.0909 227.386C44.0795 228.591 43.1818 229.386 41.9318 229.386ZM52.1548 224.364H50.7457L47.8366 226.295V227.727L50.6776 225.841H50.7457V236H52.1548V224.364Z" fill="#8A92A6"/>
<path d="M38.5682 288H40.0455L45.2273 277.682V276.364H37.7727V277.614H43.7727V277.705L38.5682 288ZM47.3452 288H54.6861V286.75H49.277V286.659L51.8906 283.864C53.8906 281.722 54.4815 280.722 54.4815 279.432C54.4815 277.636 53.027 276.205 50.9815 276.205C48.9418 276.205 47.3906 277.591 47.3906 279.636H48.7315C48.7315 278.312 49.5895 277.432 50.9361 277.432C52.1974 277.432 53.1634 278.205 53.1634 279.432C53.1634 280.506 52.5327 281.301 51.1861 282.773L47.3452 286.977V288Z" fill="#8A92A6"/>
<path d="M42.0682 340.159C44.4205 340.188 45.9545 338.415 45.9545 336.25C45.9545 334 44.2898 332.386 42.2955 332.386C41.0966 332.386 40.0682 332.972 39.4318 333.932H39.3409C39.3466 331.097 40.4489 329.455 42.25 329.455C43.4773 329.455 44.2159 330.227 44.4773 331.273H45.8636C45.5795 329.466 44.2045 328.205 42.25 328.205C39.6307 328.205 38.0227 330.523 38.0227 334.636C38.0227 338.938 40.1591 340.136 42.0682 340.159ZM42.0682 338.909C40.608 338.909 39.5398 337.665 39.5455 336.273C39.5511 334.881 40.6705 333.636 42.1136 333.636C43.5398 333.636 44.5909 334.807 44.5909 336.25C44.5909 337.727 43.4943 338.909 42.0682 338.909ZM52.1207 340.159C54.3764 340.159 56.0526 338.744 56.0526 336.841C56.0526 335.364 55.1776 334.29 53.7116 334.045V333.955C54.8878 333.597 55.6207 332.631 55.6207 331.318C55.6207 329.67 54.3196 328.205 52.1662 328.205C50.1548 328.205 48.4844 329.443 48.4162 331.273H49.7798C49.831 330.114 50.9332 329.432 52.1435 329.432C53.4276 329.432 54.2571 330.21 54.2571 331.386C54.2571 332.614 53.2969 333.409 51.9162 333.409H50.9844V334.659H51.9162C53.6832 334.659 54.6662 335.557 54.6662 336.841C54.6662 338.074 53.5923 338.909 52.098 338.909C50.7514 338.909 49.6832 338.216 49.598 337.091H48.1662C48.2514 338.92 49.8651 340.159 52.1207 340.159Z" fill="#8A92A6"/>
<path d="M41.8409 392.159C44.0568 392.159 45.6818 390.523 45.6818 388.295C45.6818 386.04 44.1136 384.386 41.9773 384.386C41.1932 384.386 40.4318 384.665 39.9545 385.045H39.8864L40.2955 381.614H45.1591V380.364H39.1136L38.4091 386.091L39.7273 386.25C40.2102 385.903 41.0341 385.653 41.75 385.659C43.233 385.67 44.3182 386.795 44.3182 388.318C44.3182 389.812 43.2727 390.909 41.8409 390.909C40.6477 390.909 39.6989 390.142 39.5909 389.091H38.2273C38.3125 390.864 39.8409 392.159 41.8409 392.159ZM47.6662 389.614H53.1435V392H54.4844V389.614H56.0753V388.364H54.4844V380.364H52.7798L47.6662 388.455V389.614ZM53.1435 388.364H49.1889V388.273L53.0526 382.159H53.1435V388.364Z" fill="#8A92A6"/>
<line x1="84" y1="391.5" x2="1033" y2="391.5" stroke="#E9ECEF"/>
<line x1="84.5" y1="398" x2="84.5" y2="391" stroke="#8A92A6"/>
<line x1="251.5" y1="398" x2="251.5" y2="391" stroke="#8A92A6"/>
<line x1="410.5" y1="398" x2="410.5" y2="391" stroke="#8A92A6"/>
<line x1="565.5" y1="398" x2="565.5" y2="391" stroke="#8A92A6"/>
<line x1="717.5" y1="398" x2="717.5" y2="391" stroke="#8A92A6"/>
<line x1="865.5" y1="398" x2="865.5" y2="391" stroke="#8A92A6"/>
<line x1="1032.5" y1="398" x2="1032.5" y2="391" stroke="#8A92A6"/>
<path d="M71.8636 406.364V414.682C71.8636 416.131 71.1705 416.909 69.9545 416.909C68.8466 416.909 68.0455 416.261 68.0455 415.273H66.6591C66.6591 417.062 68.0455 418.159 69.9545 418.159C71.9773 418.159 73.2727 416.915 73.2727 414.682V406.364H71.8636ZM78.483 418.205C80.0057 418.205 80.8011 417.386 81.0739 416.818H81.142V418H82.483V412.25C82.483 409.477 80.3693 409.159 79.2557 409.159C77.9375 409.159 76.4375 409.614 75.7557 411.205L77.0284 411.659C77.3239 411.023 78.0227 410.341 79.3011 410.341C80.5341 410.341 81.142 410.994 81.142 412.114V412.159C81.142 412.807 80.483 412.75 78.892 412.955C77.2727 413.165 75.5057 413.523 75.5057 415.523C75.5057 417.227 76.8239 418.205 78.483 418.205ZM78.6875 417C77.6193 417 76.8466 416.523 76.8466 415.591C76.8466 414.568 77.7784 414.25 78.8239 414.114C79.392 414.045 80.9148 413.886 81.142 413.614V414.841C81.142 415.932 80.2784 417 78.6875 417ZM86.2713 412.75C86.2713 411.227 87.2145 410.364 88.4986 410.364C89.7429 410.364 90.4986 411.176 90.4986 412.545V418H91.8395V412.455C91.8395 410.227 90.652 409.159 88.8849 409.159C87.5668 409.159 86.7486 409.75 86.3395 410.636H86.2259V409.273H84.9304V418H86.2713V412.75Z" fill="#8A92A6"/>
<path d="M227.409 418H228.818V412.795H233.864V411.545H228.818V407.614H234.386V406.364H227.409V418ZM239.636 418.182C241.409 418.182 242.705 417.295 243.114 415.977L241.818 415.614C241.477 416.523 240.688 416.977 239.636 416.977C238.062 416.977 236.977 415.96 236.915 414.091H243.25V413.523C243.25 410.273 241.318 409.159 239.5 409.159C237.136 409.159 235.568 411.023 235.568 413.705C235.568 416.386 237.114 418.182 239.636 418.182ZM236.915 412.932C237.006 411.574 237.966 410.364 239.5 410.364C240.955 410.364 241.886 411.455 241.886 412.932H236.915ZM245.472 418H246.767V416.659H246.926C247.222 417.136 247.79 418.182 249.472 418.182C251.653 418.182 253.176 416.432 253.176 413.659C253.176 410.909 251.653 409.159 249.449 409.159C247.744 409.159 247.222 410.205 246.926 410.659H246.812V406.364H245.472V418ZM246.79 413.636C246.79 411.682 247.653 410.364 249.29 410.364C250.994 410.364 251.835 411.795 251.835 413.636C251.835 415.5 250.972 416.977 249.29 416.977C247.676 416.977 246.79 415.614 246.79 413.636Z" fill="#8A92A6"/>
<path d="M387.409 406.364V418H388.727V409.159H388.841L392.477 418H393.75L397.386 409.159H397.5V418H398.818V406.364H397.136L393.182 416.023H393.045L389.091 406.364H387.409ZM404.03 418.205C405.553 418.205 406.348 417.386 406.621 416.818H406.689V418H408.03V412.25C408.03 409.477 405.916 409.159 404.803 409.159C403.484 409.159 401.984 409.614 401.303 411.205L402.575 411.659C402.871 411.023 403.57 410.341 404.848 410.341C406.081 410.341 406.689 410.994 406.689 412.114V412.159C406.689 412.807 406.03 412.75 404.439 412.955C402.82 413.165 401.053 413.523 401.053 415.523C401.053 417.227 402.371 418.205 404.03 418.205ZM404.234 417C403.166 417 402.393 416.523 402.393 415.591C402.393 414.568 403.325 414.25 404.371 414.114C404.939 414.045 406.462 413.886 406.689 413.614V414.841C406.689 415.932 405.825 417 404.234 417ZM410.477 418H411.818V412.477C411.818 411.295 412.75 410.432 414.023 410.432C414.381 410.432 414.75 410.5 414.841 410.523V409.159C414.688 409.148 414.335 409.136 414.136 409.136C413.091 409.136 412.182 409.727 411.864 410.591H411.773V409.273H410.477V418Z" fill="#8A92A6"/>
<path d="M549.886 418L551.057 414.705H555.761L556.932 418H558.409L554.136 406.364H552.682L548.409 418H549.886ZM551.5 413.455L553.364 408.205H553.455L555.318 413.455H551.5ZM560.04 421.273H561.381V416.659H561.494C561.79 417.136 562.358 418.182 564.04 418.182C566.222 418.182 567.744 416.432 567.744 413.659C567.744 410.909 566.222 409.159 564.017 409.159C562.312 409.159 561.79 410.205 561.494 410.659H561.335V409.273H560.04V421.273ZM561.358 413.636C561.358 411.682 562.222 410.364 563.858 410.364C565.562 410.364 566.403 411.795 566.403 413.636C566.403 415.5 565.54 416.977 563.858 416.977C562.244 416.977 561.358 415.614 561.358 413.636ZM569.79 418H571.131V412.477C571.131 411.295 572.062 410.432 573.335 410.432C573.693 410.432 574.062 410.5 574.153 410.523V409.159C574 409.148 573.648 409.136 573.449 409.136C572.403 409.136 571.494 409.727 571.176 410.591H571.085V409.273H569.79V418Z" fill="#8A92A6"/>
<path d="M712.864 406.364V414.682C712.864 416.131 712.17 416.909 710.955 416.909C709.847 416.909 709.045 416.261 709.045 415.273H707.659C707.659 417.062 709.045 418.159 710.955 418.159C712.977 418.159 714.273 416.915 714.273 414.682V406.364H712.864ZM722.415 414.432C722.415 416.068 721.165 416.818 720.165 416.818C719.051 416.818 718.256 416 718.256 414.727V409.273H716.915V414.818C716.915 417.045 718.097 418.114 719.733 418.114C721.051 418.114 721.915 417.409 722.324 416.523H722.415V418H723.756V409.273H722.415V414.432ZM727.553 412.75C727.553 411.227 728.496 410.364 729.78 410.364C731.024 410.364 731.78 411.176 731.78 412.545V418H733.121V412.455C733.121 410.227 731.933 409.159 730.166 409.159C728.848 409.159 728.03 409.75 727.621 410.636H727.507V409.273H726.212V418H727.553V412.75Z" fill="#8A92A6"/>
<path d="M872.864 406.364V414.682C872.864 416.131 872.17 416.909 870.955 416.909C869.847 416.909 869.045 416.261 869.045 415.273H867.659C867.659 417.062 869.045 418.159 870.955 418.159C872.977 418.159 874.273 416.915 874.273 414.682V406.364H872.864ZM882.415 414.432C882.415 416.068 881.165 416.818 880.165 416.818C879.051 416.818 878.256 416 878.256 414.727V409.273H876.915V414.818C876.915 417.045 878.097 418.114 879.733 418.114C881.051 418.114 881.915 417.409 882.324 416.523H882.415V418H883.756V409.273H882.415V414.432ZM887.553 406.364H886.212V418H887.553V406.364Z" fill="#8A92A6"/>
<path d="M1022.89 418L1024.06 414.705H1028.76L1029.93 418H1031.41L1027.14 406.364H1025.68L1021.41 418H1022.89ZM1024.5 413.455L1026.36 408.205H1026.45L1028.32 413.455H1024.5ZM1038.54 414.432C1038.54 416.068 1037.29 416.818 1036.29 416.818C1035.18 416.818 1034.38 416 1034.38 414.727V409.273H1033.04V414.818C1033.04 417.045 1034.22 418.114 1035.86 418.114C1037.18 418.114 1038.04 417.409 1038.45 416.523H1038.54V418H1039.88V409.273H1038.54V414.432ZM1045.86 421.455C1047.95 421.455 1049.63 420.5 1049.63 418.25V409.273H1048.34V410.659H1048.2C1047.9 410.205 1047.36 409.159 1045.65 409.159C1043.45 409.159 1041.93 410.909 1041.93 413.591C1041.93 416.318 1043.52 417.864 1045.63 417.864C1047.34 417.864 1047.88 416.864 1048.18 416.386H1048.29V418.159C1048.29 419.614 1047.27 420.273 1045.86 420.273C1044.27 420.273 1043.72 419.438 1043.36 418.955L1042.29 419.705C1042.84 420.619 1043.91 421.455 1045.86 421.455ZM1045.81 416.659C1044.13 416.659 1043.27 415.386 1043.27 413.568C1043.27 411.795 1044.11 410.364 1045.81 410.364C1047.45 410.364 1048.31 411.682 1048.31 413.568C1048.31 415.5 1047.43 416.659 1045.81 416.659Z" fill="#8A92A6"/>
<path d="M351.507 208.232L293.34 264.822C267.694 289.772 229.06 295.739 197.083 279.688L146.069 254.083C129.471 245.752 111.607 240.231 93.2033 237.744L84 236.5V375H1033V215.5L1030.47 215.856C1011.1 218.58 992.647 225.847 976.624 237.063L928.617 270.668C896.413 293.211 854.186 295.457 819.771 276.459L758.715 242.753C733 228.557 701.858 228.295 675.908 242.056L605.455 279.418C573.771 296.22 534.915 291.053 508.723 266.556L445.374 207.308C418.856 182.506 377.532 182.913 351.507 208.232Z" fill="url(#paint0_linear_1820_2454)" fill-opacity="0.2"/>
<path d="M84 134.5L89.7254 135.274C110.394 138.067 130.363 144.684 148.609 154.788L195.089 180.524C224.39 196.749 259.867 197.227 289.595 181.799L358.787 145.889C384.675 132.454 415.434 132.241 441.504 145.317L517.274 183.321C543.811 196.631 575.108 196.472 601.508 182.892L676.399 144.37C701.265 131.579 730.765 131.521 755.682 144.213L827.77 180.933C857.966 196.314 893.795 195.858 923.589 179.715L982.566 147.759C995.095 140.97 1008.68 136.125 1022.88 134.979C1026.44 134.692 1029.96 134.5 1033 134.5" stroke="#3A57E8" stroke-width="2"/>
<path d="M84 238.5L93.2033 239.744C111.607 242.231 129.471 247.752 146.069 256.083L197.083 281.688C229.06 297.739 267.694 291.772 293.34 266.822L351.507 210.232C377.532 184.913 418.856 184.506 445.374 209.308L508.723 268.556C534.915 293.053 573.771 298.22 605.455 281.418L675.908 244.056C701.858 230.295 733 230.557 758.715 244.753L819.771 278.459C854.186 297.457 896.413 295.211 928.617 272.668L976.624 239.063C992.647 227.847 1011.1 220.58 1030.47 217.856L1033 217.5" stroke="#369BFF" stroke-width="2"/>
<path d="M358.787 145.889L289.595 181.799C259.867 197.227 224.39 196.749 195.089 180.524L148.609 154.788C130.363 144.684 110.394 138.067 89.7254 135.274L84 134.5V375.5H1033V134.5L1026.63 135.107C1010.05 136.686 993.953 141.589 979.309 149.524L923.589 179.715C893.795 195.858 857.966 196.314 827.77 180.933L755.682 144.213C730.765 131.521 701.265 131.579 676.399 144.37L601.508 182.892C575.108 196.472 543.811 196.631 517.274 183.321L441.504 145.317C415.434 132.241 384.675 132.454 358.787 145.889Z" fill="url(#paint1_linear_1820_2454)" fill-opacity="0.2"/>
</g>
<defs>
<filter id="filter0_d_1820_2454" x="0" y="0" width="1090" height="473" filterUnits="userSpaceOnUse" color-interpolation-filters="sRGB">
<feFlood flood-opacity="0" result="BackgroundImageFix"/>
<feColorMatrix in="SourceAlpha" type="matrix" values="0 0 0 0 0 0 0 0 0 0 0 0 0 0 0 0 0 0 127 0" result="hardAlpha"/>
<feOffset dy="10"/>
<feGaussianBlur stdDeviation="6.5"/>
<feComposite in2="hardAlpha" operator="out"/>
<feColorMatrix type="matrix" values="0 0 0 0 0.0666667 0 0 0 0 0.14902 0 0 0 0 0.572549 0 0 0 0.05 0"/>
<feBlend mode="normal" in2="BackgroundImageFix" result="effect1_dropShadow_1820_2454"/>
<feBlend mode="normal" in="SourceGraphic" in2="effect1_dropShadow_1820_2454" result="shape"/>
</filter>
<linearGradient id="paint0_linear_1820_2454" x1="558" y1="177" x2="558" y2="325.5" gradientUnits="userSpaceOnUse">
<stop stop-color="#85C5FA"/>
<stop offset="0.385417" stop-color="#85D9FA" stop-opacity="0.586835"/>
<stop offset="0.93284" stop-color="#85F4FA" stop-opacity="0"/>
</linearGradient>
<linearGradient id="paint1_linear_1820_2454" x1="558.5" y1="124" x2="558" y2="219.5" gradientUnits="userSpaceOnUse">
<stop stop-color="#3A57E8"/>
<stop offset="1" stop-color="#3A57E8" stop-opacity="0"/>
</linearGradient>
</defs>
</svg>
