<svg width="141" height="45" viewBox="0 0 141 45" fill="none" xmlns="http://www.w3.org/2000/svg">
<rect x="1" y="1" width="43" height="43" rx="21.5" fill="white"/>
<path d="M18.625 19.4205H20.3182C20.267 17.5568 18.6193 16.2045 16.2557 16.2045C13.9205 16.2045 12.1307 17.5398 12.1307 19.5455C12.1307 21.1648 13.2898 22.1136 15.1591 22.6193L16.5341 22.9943C17.7784 23.3239 18.7386 23.733 18.7386 24.767C18.7386 25.9034 17.6534 26.6534 16.1591 26.6534C14.8068 26.6534 13.6818 26.0511 13.5795 24.7841H11.8182C11.9318 26.892 13.5625 28.1932 16.1705 28.1932C18.9034 28.1932 20.4773 26.7557 20.4773 24.7841C20.4773 22.6875 18.608 21.875 17.1307 21.5114L15.9943 21.2159C15.0852 20.983 13.875 20.5568 13.8807 19.4432C13.8807 18.4545 14.7841 17.7216 16.2159 17.7216C17.5511 17.7216 18.5 18.3466 18.625 19.4205ZM22.5753 28H24.331V23.9091H26.7173C29.4162 23.9091 30.7514 22.2784 30.7514 20.1307C30.7514 17.9886 29.4276 16.3636 26.723 16.3636H22.5753V28ZM24.331 22.4205V17.8693H26.5355C28.2741 17.8693 28.9844 18.8125 28.9844 20.1307C28.9844 21.4489 28.2741 22.4205 26.5582 22.4205H24.331Z" fill="#3A57E8"/>
<rect x="1" y="1" width="43" height="43" rx="21.5" stroke="#3A57E8" stroke-width="2"/>
<rect x="33" y="1" width="43" height="43" rx="21.5" fill="white"/>
<path d="M41.2784 16.3636V28H42.9489V19.5739H43.0568L46.4886 27.983H47.875L51.3068 19.5795H51.4148V28H53.0852V16.3636H50.9545L47.25 25.4091H47.1136L43.4091 16.3636H41.2784ZM55.6378 16.3636V28H57.3082V19.5739H57.4162L60.848 27.983H62.2344L65.6662 19.5795H65.7741V28H67.4446V16.3636H65.3139L61.6094 25.4091H61.473L57.7685 16.3636H55.6378Z" fill="#3A57E8"/>
<rect x="33" y="1" width="43" height="43" rx="21.5" stroke="#3A57E8" stroke-width="2"/>
</svg>
