<svg width="141" height="45" viewBox="0 0 141 45" fill="none" xmlns="http://www.w3.org/2000/svg">
<rect x="1" y="1" width="43" height="43" rx="21.5" fill="white"/>
<path d="M13.2784 28H15.0341V23.9091H17.4205C20.1193 23.9091 21.4545 22.2784 21.4545 20.1307C21.4545 17.9886 20.1307 16.3636 17.4261 16.3636H13.2784V28ZM15.0341 22.4205V17.8693H17.2386C18.9773 17.8693 19.6875 18.8125 19.6875 20.1307C19.6875 21.4489 18.9773 22.4205 17.2614 22.4205H15.0341ZM23.5128 28H25.2685V23.9091H27.6548C30.3537 23.9091 31.6889 22.2784 31.6889 20.1307C31.6889 17.9886 30.3651 16.3636 27.6605 16.3636H23.5128V28ZM25.2685 22.4205V17.8693H27.473C29.2116 17.8693 29.9219 18.8125 29.9219 20.1307C29.9219 21.4489 29.2116 22.4205 27.4957 22.4205H25.2685Z" fill="#3A57E8"/>
<rect x="1" y="1" width="43" height="43" rx="21.5" stroke="#3A57E8" stroke-width="2"/>
<rect x="33" y="1" width="43" height="43" rx="21.5" fill="white"/>
<path d="M44.7045 17.875H48.3295V28H50.0795V17.875H53.7102V16.3636H44.7045V17.875ZM55.7003 28H57.456V23.9091H59.8423C62.5412 23.9091 63.8764 22.2784 63.8764 20.1307C63.8764 17.9886 62.5526 16.3636 59.848 16.3636H55.7003V28ZM57.456 22.4205V17.8693H59.6605C61.3991 17.8693 62.1094 18.8125 62.1094 20.1307C62.1094 21.4489 61.3991 22.4205 59.6832 22.4205H57.456Z" fill="#3A57E8"/>
<rect x="33" y="1" width="43" height="43" rx="21.5" stroke="#3A57E8" stroke-width="2"/>
</svg>
